<?xml version="1.0" encoding="utf-8"?>
<!-- Generator: Adobe Illustrator 16.0.0, SVG Export Plug-In . SVG Version: 6.00 Build 0)  -->
<!DOCTYPE svg PUBLIC "-//W3C//DTD SVG 1.1//EN" "http://www.w3.org/Graphics/SVG/1.1/DTD/svg11.dtd">
<svg version="1.1" id="Layer_1" xmlns="http://www.w3.org/2000/svg" xmlns:xlink="http://www.w3.org/1999/xlink" x="0px" y="0px"
	 width="349px" height="207px" viewBox="0 0 349 207" enable-background="new 0 0 349 207" xml:space="preserve">
<g>
	<g>
		<path fill="#BFBFBF" d="M78.714,180.18c0.081,2.295,1.046,3.361,3.019,3.361c1.812,0,2.918-1.047,2.918-2.616
			c0-1.329-0.725-2.174-2.214-2.737l-1.731-0.664c-2.254-0.846-3.341-2.053-3.341-3.885c0-2.254,1.691-3.885,4.327-3.885
			c2.637,0,4.267,1.65,4.267,4.429h-1.63c-0.04-1.973-0.986-3.02-2.677-3.02c-1.59,0-2.697,0.986-2.697,2.314
			c0,1.248,0.704,1.973,2.133,2.516l1.832,0.705c2.274,0.865,3.321,1.952,3.321,4.105c0,2.516-1.731,4.146-4.589,4.146
			c-2.838,0-4.448-1.691-4.548-4.771H78.714z"/>
		<path fill="#BFBFBF" d="M89.402,184.668v-11.371h1.389v1.469c0.302-1.087,1.208-1.65,2.576-1.65c1.429,0,2.415,0.584,3.039,1.832
			c0.563-1.269,1.429-1.832,2.777-1.832c2.194,0,3.421,1.369,3.421,3.985v7.567h-1.489v-7.004c0-2.174-0.302-3.2-1.952-3.2
			c-1.53,0-2.375,1.107-2.375,3.221v6.983h-1.489v-7.004c0-2.174-0.342-3.2-1.993-3.2c-1.55,0-2.415,1.107-2.415,3.221v6.983H89.402
			z"/>
		<path fill="#BFBFBF" d="M113.938,184.668h-1.369v-1.73c-0.442,1.308-1.368,1.972-2.757,1.972c-2.395,0-3.904-2.053-3.904-5.716
			c0-3.965,1.53-6.098,4.085-6.098c1.147,0,2.013,0.463,2.556,1.429v-1.228h1.389V184.668z M110.073,174.464
			c-1.57,0-2.576,1.59-2.576,4.549c0,3.059,0.845,4.589,2.456,4.589c1.63,0,2.496-1.53,2.496-4.569
			C112.448,175.934,111.804,174.464,110.073,174.464z"/>
		<path fill="#BFBFBF" d="M121.567,173.115c0.201,0,0.463,0.021,0.745,0.061v1.429c-0.101,0-0.181,0-0.282,0
			c-1.751,0-2.596,0.946-2.596,2.938v7.125h-1.489v-11.371h1.328v1.771C119.554,173.8,120.379,173.115,121.567,173.115z"/>
		<path fill="#BFBFBF" d="M125.512,184.668v-10.164h-1.489v-1.207h1.489v-3.261h1.489v3.261h1.59v1.207h-1.59v10.164H125.512z"/>
		<path fill="#BFBFBF" d="M147.874,179.576c-0.041,3.481-1.731,5.374-4.73,5.374c-3.542,0-5.253-2.496-5.253-7.588
			c0-4.991,1.832-7.608,5.132-7.608c2.999,0,4.669,1.832,4.851,5.395h-1.49c-0.241-2.717-1.188-4.006-3.14-4.006
			c-2.516,0-3.723,2.073-3.723,6.22c0,4.187,1.167,6.198,3.723,6.198c1.973,0,2.979-1.328,3.039-3.984H147.874z"/>
		<path fill="#BFBFBF" d="M151.155,171.908v-1.872h1.489v1.872H151.155z M151.155,184.668v-11.371h1.489v11.371H151.155z"/>
		<path fill="#BFBFBF" d="M156.973,184.668v-10.164h-1.489v-1.207h1.489v-3.261h1.489v3.261h1.59v1.207h-1.59v10.164H156.973z"/>
		<path fill="#BFBFBF" d="M163.192,173.297l2.435,7.909c0.161,0.503,0.262,1.066,0.302,1.69c0.121-0.684,0.282-1.247,0.423-1.71
			l2.375-7.89h1.55l-4.75,15.275h-1.59l1.268-4.045l-3.583-11.23H163.192z"/>
		<path fill="#BFBFBF" d="M189.519,179.576c-0.04,3.481-1.73,5.374-4.729,5.374c-3.542,0-5.253-2.496-5.253-7.588
			c0-4.991,1.831-7.608,5.132-7.608c2.999,0,4.67,1.832,4.851,5.395h-1.489c-0.241-2.717-1.188-4.006-3.14-4.006
			c-2.516,0-3.724,2.073-3.724,6.22c0,4.187,1.168,6.198,3.724,6.198c1.973,0,2.979-1.328,3.039-3.984H189.519z"/>
		<path fill="#BFBFBF" d="M192.096,179.013c0-3.784,1.65-5.897,4.388-5.897s4.367,2.113,4.367,5.897
			c0,3.783-1.609,5.896-4.367,5.896C193.727,184.909,192.096,182.796,192.096,179.013z M196.483,174.424
			c-1.791,0-2.798,1.569-2.798,4.589c0,3.019,1.007,4.589,2.798,4.589c1.812,0,2.798-1.55,2.798-4.589
			S198.295,174.424,196.483,174.424z"/>
		<path fill="#BFBFBF" d="M204.897,181.267c0.262,1.57,1.047,2.335,2.416,2.335c1.348,0,2.254-0.825,2.254-1.912
			c0-1.026-0.584-1.51-1.832-1.912l-1.63-0.523c-1.65-0.523-2.415-1.449-2.415-2.938c0-1.912,1.389-3.18,3.683-3.18
			c2.174,0,3.422,1.188,3.623,3.502h-1.429c-0.121-1.429-0.946-2.214-2.274-2.214c-1.208,0-2.033,0.785-2.033,1.771
			c0,0.846,0.463,1.269,1.47,1.591l1.569,0.503c2.013,0.644,2.838,1.55,2.838,3.32c0,1.973-1.469,3.281-3.884,3.281
			c-2.234,0-3.623-1.329-3.824-3.623H204.897z"/>
		<path fill="#BFBFBF" d="M214.802,184.668v-10.164h-1.49v-1.207h1.49v-3.261h1.489v3.261h1.59v1.207h-1.59v10.164H214.802z"/>
		<path fill="#BFBFBF" d="M228.166,184.668h-1.369v-1.73c-0.442,1.308-1.368,1.972-2.757,1.972c-2.396,0-3.904-2.053-3.904-5.716
			c0-3.965,1.529-6.098,4.085-6.098c1.147,0,2.013,0.463,2.557,1.429v-1.228h1.389V184.668z M224.302,174.464
			c-1.57,0-2.576,1.59-2.576,4.549c0,3.059,0.845,4.589,2.455,4.589c1.63,0,2.496-1.53,2.496-4.569
			C226.677,175.934,226.032,174.464,224.302,174.464z"/>
		<path fill="#BFBFBF" d="M239.458,184.668v-14.632h3.925c3.24,0,4.931,1.489,4.931,4.206c0,2.536-1.408,4.227-3.622,4.348
			l4.005,6.078h-1.731l-4.77-7.266h1.489c2.013,0,3.039-1.006,3.039-2.918c0-2.013-1.066-3.039-2.999-3.039h-2.777v13.223H239.458z"
			/>
		<path fill="#BFBFBF" d="M251.777,171.908v-1.872h1.489v1.872H251.777z M251.777,184.668v-11.371h1.489v11.371H251.777z"/>
		<path fill="#BFBFBF" d="M262.866,177.262c-0.141-1.893-0.886-2.838-2.254-2.838c-1.59,0-2.396,1.529-2.396,4.589
			c0,3.039,0.825,4.589,2.396,4.589c1.368,0,2.113-0.967,2.254-2.858h1.409c-0.081,2.697-1.409,4.166-3.663,4.166
			c-2.536,0-3.985-2.032-3.985-5.896s1.449-5.897,3.965-5.897c2.255,0,3.603,1.449,3.684,4.146H262.866z"/>
		<path fill="#BFBFBF" d="M275.145,184.668h-1.369v-1.73c-0.442,1.308-1.368,1.972-2.757,1.972c-2.396,0-3.904-2.053-3.904-5.716
			c0-3.965,1.529-6.098,4.085-6.098c1.147,0,2.013,0.463,2.557,1.429v-1.228h1.389V184.668z M271.28,174.464
			c-1.57,0-2.576,1.59-2.576,4.549c0,3.059,0.845,4.589,2.455,4.589c1.63,0,2.496-1.53,2.496-4.569
			C273.655,175.934,273.011,174.464,271.28,174.464z"/>
	</g>
</g>
<g>
	<g>
		<path fill="#BFBFBF" d="M24.912,134.434c0.72,0,1.568,0.064,2.543,0.191c0.976,0.129,1.904,0.4,2.787,0.818
			c0.882,0.418,1.62,1.029,2.212,1.83c0.592,0.801,0.876,1.887,0.854,3.256v4.877c0.023,1.371-0.261,2.457-0.854,3.258
			c-0.592,0.801-1.33,1.41-2.212,1.828c-0.883,0.418-1.811,0.691-2.787,0.818c-0.975,0.129-1.823,0.191-2.543,0.191H18.92v8.988
			h-3.1v-26.057H24.912z M30.207,140.635c0.023-1.068-0.18-1.91-0.609-2.525c-0.43-0.615-0.964-1.074-1.603-1.377
			c-0.639-0.301-1.324-0.486-2.055-0.557s-1.376-0.105-1.933-0.105H18.92v13.76h5.086c0.557,0,1.202-0.035,1.933-0.104
			c0.731-0.07,1.416-0.256,2.055-0.559c0.638-0.301,1.172-0.754,1.603-1.357c0.429-0.604,0.632-1.439,0.609-2.508V140.635z"/>
		<path fill="#BFBFBF" d="M47.589,141.471h3.1v13.41c0,0.953-0.215,1.801-0.645,2.543c-0.43,0.744-0.993,1.377-1.689,1.898
			c-0.696,0.523-1.498,0.924-2.403,1.203c-0.906,0.277-1.846,0.418-2.822,0.418c-0.975,0-1.916-0.141-2.821-0.418
			c-0.906-0.279-1.707-0.68-2.404-1.203c-0.696-0.521-1.254-1.154-1.672-1.898c-0.418-0.742-0.627-1.59-0.627-2.543v-13.41h3.1
			v13.271c0,1.324,0.377,2.41,1.132,3.258c0.754,0.848,1.852,1.271,3.292,1.271s2.543-0.424,3.31-1.271
			c0.766-0.848,1.149-1.934,1.149-3.258V141.471z"/>
		<path fill="#BFBFBF" d="M62.706,141.662c0.976,0.127,1.904,0.4,2.787,0.818c0.882,0.418,1.62,1.027,2.212,1.828
			c0.592,0.803,0.876,1.877,0.854,3.223v12.959h-3.101v-12.82c0.023-1.066-0.174-1.908-0.592-2.525
			c-0.418-0.613-0.953-1.072-1.603-1.375c-0.65-0.301-1.341-0.488-2.073-0.557c-0.731-0.07-1.376-0.105-1.933-0.105h-2.856v17.383
			h-3.1v-19.02h6.862C60.883,141.471,61.731,141.535,62.706,141.662z"/>
		<path fill="#BFBFBF" d="M74.741,156.502c0.313,0.568,0.714,1.021,1.202,1.357c0.488,0.338,1.033,0.57,1.637,0.697
			c0.604,0.127,1.184,0.215,1.742,0.262v1.672c-0.488,0-1.022-0.023-1.603-0.07c-0.581-0.047-1.179-0.145-1.794-0.297
			c-0.616-0.15-1.208-0.365-1.776-0.643c-0.569-0.279-1.075-0.645-1.515-1.098c-0.441-0.453-0.79-1.004-1.045-1.654
			c-0.256-0.65-0.372-1.43-0.348-2.334v-2.893v-3.936v-0.035v-9.719h3.065v5.365c0.859-0.395,1.753-0.645,2.682-0.75
			c0.929-0.104,1.73-0.156,2.404-0.156v1.742c-0.535,0.047-1.098,0.127-1.689,0.244c-0.592,0.115-1.132,0.324-1.62,0.627
			c-0.488,0.301-0.9,0.713-1.236,1.236c-0.337,0.521-0.517,1.201-0.54,2.037v6.131C74.282,155.195,74.428,155.932,74.741,156.502z"
			/>
		<path fill="#BFBFBF" d="M87.717,141.541c0.719,0,1.567,0.062,2.542,0.191c0.976,0.127,1.898,0.4,2.77,0.818
			c0.871,0.418,1.608,1.033,2.212,1.846c0.604,0.812,0.894,1.893,0.871,3.24v12.854h-6.897c-0.72,0-1.567-0.064-2.543-0.191
			c-0.975-0.129-1.898-0.4-2.769-0.818c-0.871-0.418-1.608-1.029-2.212-1.83c-0.604-0.801-0.895-1.887-0.871-3.256
			c0.023-1.416,0.401-2.566,1.132-3.449s1.672-1.568,2.821-2.055c1.15-0.488,2.444-0.795,3.884-0.924
			c1.439-0.127,2.891-0.145,4.354-0.053v-0.139c0.023-1.068-0.18-1.916-0.609-2.543c-0.43-0.627-0.97-1.098-1.62-1.41
			c-0.651-0.314-1.336-0.512-2.056-0.594c-0.72-0.08-1.358-0.121-1.916-0.121h-2.334v-1.01c0.325-0.162,0.731-0.297,1.219-0.4
			C86.184,141.592,86.857,141.541,87.717,141.541z M93.011,149.586c-1.184-0.068-2.316-0.062-3.396,0.018
			c-1.08,0.082-2.038,0.291-2.874,0.627c-0.836,0.338-1.51,0.832-2.021,1.48c-0.511,0.65-0.778,1.51-0.801,2.578
			c-0.023,1.068,0.179,1.904,0.609,2.508c0.429,0.605,0.969,1.057,1.62,1.359c0.65,0.301,1.335,0.486,2.055,0.557
			s1.359,0.105,1.916,0.105h2.891V149.586z"/>
		<path fill="#BFBFBF" d="M116.942,134.434c0.72,0,1.568,0.064,2.543,0.191c0.976,0.129,1.904,0.4,2.787,0.818
			c0.882,0.418,1.62,1.029,2.212,1.83c0.592,0.801,0.876,1.887,0.854,3.256v4.877c0.023,1.371-0.261,2.457-0.854,3.258
			c-0.592,0.801-1.33,1.41-2.212,1.828c-0.883,0.418-1.811,0.691-2.787,0.818c-0.975,0.129-1.823,0.191-2.543,0.191h-5.991v8.988
			h-3.1v-26.057H116.942z M122.237,140.635c0.023-1.068-0.18-1.91-0.609-2.525c-0.43-0.615-0.964-1.074-1.603-1.377
			c-0.639-0.301-1.324-0.486-2.055-0.557s-1.376-0.105-1.933-0.105h-5.086v13.76h5.086c0.557,0,1.202-0.035,1.933-0.104
			c0.731-0.07,1.416-0.256,2.055-0.559c0.638-0.301,1.172-0.754,1.603-1.357c0.429-0.604,0.632-1.439,0.609-2.508V140.635z"/>
		<path fill="#BFBFBF" d="M134.568,141.541c0.719,0,1.567,0.062,2.542,0.191c0.976,0.127,1.898,0.4,2.77,0.818
			c0.871,0.418,1.608,1.033,2.212,1.846c0.604,0.812,0.894,1.893,0.871,3.24v12.854h-6.897c-0.72,0-1.567-0.064-2.543-0.191
			c-0.975-0.129-1.898-0.4-2.769-0.818c-0.871-0.418-1.608-1.029-2.212-1.83c-0.604-0.801-0.895-1.887-0.871-3.256
			c0.023-1.416,0.401-2.566,1.132-3.449s1.672-1.568,2.821-2.055c1.15-0.488,2.444-0.795,3.884-0.924
			c1.439-0.127,2.891-0.145,4.354-0.053v-0.139c0.023-1.068-0.18-1.916-0.609-2.543c-0.43-0.627-0.97-1.098-1.62-1.41
			c-0.651-0.314-1.336-0.512-2.056-0.594c-0.72-0.08-1.358-0.121-1.916-0.121h-2.334v-1.01c0.325-0.162,0.731-0.297,1.219-0.4
			C133.036,141.592,133.708,141.541,134.568,141.541z M139.863,149.586c-1.184-0.068-2.316-0.062-3.396,0.018
			c-1.08,0.082-2.038,0.291-2.874,0.627c-0.836,0.338-1.51,0.832-2.021,1.48c-0.511,0.65-0.778,1.51-0.801,2.578
			c-0.023,1.068,0.179,1.904,0.609,2.508c0.429,0.605,0.969,1.057,1.62,1.359c0.65,0.301,1.335,0.486,2.055,0.557
			s1.359,0.105,1.916,0.105h2.891V149.586z"/>
		<path fill="#BFBFBF" d="M148.919,134.434v19.855c-0.023,0.953,0.133,1.73,0.47,2.334c0.336,0.604,0.767,1.08,1.289,1.428
			c0.522,0.35,1.097,0.6,1.724,0.75s1.231,0.238,1.812,0.262v1.428c-0.488,0-1.034-0.023-1.637-0.07
			c-0.604-0.047-1.219-0.145-1.846-0.297c-0.627-0.15-1.243-0.365-1.846-0.643c-0.604-0.279-1.132-0.645-1.585-1.098
			c-0.453-0.453-0.819-1.004-1.097-1.654c-0.279-0.65-0.407-1.43-0.383-2.334v-19.961H148.919z"/>
		<path fill="#BFBFBF" d="M159.752,142.689v17.801h-3.1v-19.438h7.559c1.161,0,2.27,0.191,3.327,0.574s1.945,0.947,2.665,1.689
			c0.72-0.742,1.603-1.307,2.647-1.689s2.16-0.574,3.344-0.574c0.976,0,1.916,0.133,2.822,0.4s1.707,0.662,2.404,1.184
			c0.697,0.523,1.254,1.162,1.672,1.916c0.418,0.756,0.627,1.609,0.627,2.561v13.377h-3.1v-13.271c0-1.324-0.384-2.41-1.15-3.258
			c-0.766-0.848-1.858-1.271-3.274-1.271c-1.44,0-2.542,0.424-3.309,1.271c-0.766,0.848-1.149,1.934-1.149,3.258v13.271h-3.1
			v-13.271c0-1.324-0.383-2.41-1.15-3.258c-0.766-0.848-1.858-1.271-3.274-1.271H159.752z"/>
		<path fill="#BFBFBF" d="M193.088,141.541c0.721,0,1.568,0.062,2.543,0.191c0.975,0.127,1.898,0.4,2.77,0.818
			s1.607,1.033,2.213,1.846c0.604,0.812,0.893,1.893,0.869,3.24v12.854h-6.896c-0.721,0-1.568-0.064-2.543-0.191
			c-0.975-0.129-1.898-0.4-2.77-0.818s-1.607-1.029-2.211-1.83c-0.605-0.801-0.895-1.887-0.871-3.256
			c0.023-1.416,0.4-2.566,1.131-3.449c0.732-0.883,1.674-1.568,2.822-2.055c1.15-0.488,2.443-0.795,3.885-0.924
			c1.439-0.127,2.891-0.145,4.354-0.053v-0.139c0.023-1.068-0.18-1.916-0.609-2.543s-0.971-1.098-1.619-1.41
			c-0.65-0.314-1.336-0.512-2.057-0.594c-0.719-0.08-1.357-0.121-1.916-0.121h-2.334v-1.01c0.326-0.162,0.732-0.297,1.221-0.4
			C191.555,141.592,192.229,141.541,193.088,141.541z M198.383,149.586c-1.184-0.068-2.316-0.062-3.396,0.018
			c-1.08,0.082-2.037,0.291-2.873,0.627c-0.836,0.338-1.51,0.832-2.021,1.48c-0.51,0.65-0.777,1.51-0.801,2.578
			s0.18,1.904,0.609,2.508c0.43,0.605,0.971,1.057,1.621,1.359c0.648,0.301,1.334,0.486,2.055,0.557
			c0.719,0.07,1.357,0.105,1.916,0.105h2.891V149.586z"/>
		<path fill="#BFBFBF" d="M212.316,141.471h3.24v1.08c-0.326,0.162-0.732,0.277-1.219,0.348c-0.488,0.07-1.162,0.139-2.021,0.209
			c-0.557,0.047-1.145,0.139-1.758,0.279c-0.617,0.139-1.174,0.377-1.674,0.713c-0.498,0.338-0.904,0.791-1.219,1.359
			c-0.312,0.568-0.459,1.307-0.436,2.211v12.82h-3.1v-12.854c0-0.697,0.104-1.406,0.312-2.125c0.211-0.721,0.611-1.383,1.203-1.986
			s1.422-1.098,2.49-1.48S210.598,141.471,212.316,141.471z"/>
		<path fill="#BFBFBF" d="M235.307,134.434c0.719,0,1.566,0.064,2.543,0.191c0.975,0.129,1.902,0.4,2.785,0.818
			s1.621,1.029,2.213,1.83s0.877,1.887,0.854,3.256v4.877c0.023,1.371-0.262,2.457-0.854,3.258s-1.33,1.41-2.213,1.828
			s-1.811,0.691-2.785,0.818c-0.977,0.129-1.824,0.191-2.543,0.191h-5.992v8.988h-3.1v-26.057H235.307z M240.602,140.635
			c0.021-1.068-0.182-1.91-0.611-2.525s-0.963-1.074-1.602-1.377c-0.639-0.301-1.324-0.486-2.055-0.557
			c-0.732-0.07-1.377-0.105-1.934-0.105h-5.086v13.76h5.086c0.557,0,1.201-0.035,1.934-0.104c0.73-0.07,1.416-0.256,2.055-0.559
			c0.639-0.301,1.172-0.754,1.602-1.357s0.633-1.439,0.611-2.508V140.635z"/>
		<path fill="#BFBFBF" d="M252.932,141.541c0.721,0,1.568,0.062,2.543,0.191c0.975,0.127,1.898,0.4,2.77,0.818
			s1.607,1.033,2.213,1.846c0.604,0.812,0.893,1.893,0.869,3.24v12.854h-6.896c-0.721,0-1.568-0.064-2.543-0.191
			c-0.975-0.129-1.898-0.4-2.77-0.818s-1.607-1.029-2.211-1.83c-0.605-0.801-0.895-1.887-0.871-3.256
			c0.023-1.416,0.4-2.566,1.131-3.449c0.732-0.883,1.674-1.568,2.822-2.055c1.15-0.488,2.443-0.795,3.885-0.924
			c1.439-0.127,2.891-0.145,4.354-0.053v-0.139c0.023-1.068-0.18-1.916-0.609-2.543s-0.971-1.098-1.619-1.41
			c-0.65-0.314-1.336-0.512-2.057-0.594c-0.719-0.08-1.357-0.121-1.916-0.121h-2.334v-1.01c0.326-0.162,0.732-0.297,1.221-0.4
			C251.398,141.592,252.072,141.541,252.932,141.541z M258.227,149.586c-1.184-0.068-2.316-0.062-3.396,0.018
			c-1.08,0.082-2.037,0.291-2.873,0.627c-0.836,0.338-1.51,0.832-2.021,1.48c-0.51,0.65-0.777,1.51-0.801,2.578
			s0.18,1.904,0.609,2.508c0.43,0.605,0.971,1.057,1.621,1.359c0.648,0.301,1.334,0.486,2.055,0.557
			c0.719,0.07,1.357,0.105,1.916,0.105h2.891V149.586z"/>
		<path fill="#BFBFBF" d="M271.377,143.213c-0.732,0.068-1.424,0.256-2.072,0.557c-0.65,0.303-1.191,0.762-1.621,1.375
			c-0.43,0.617-0.621,1.459-0.574,2.525v6.619c-0.047,1.068,0.145,1.904,0.574,2.508c0.43,0.605,0.971,1.057,1.621,1.359
			c0.648,0.301,1.34,0.486,2.072,0.557c0.73,0.07,1.375,0.105,1.934,0.105h4.109v1.148c-0.324,0.164-0.73,0.291-1.219,0.383
			c-0.488,0.094-1.162,0.141-2.02,0.141h-1.812c-0.465,0-0.998-0.023-1.602-0.07c-0.605-0.047-1.219-0.145-1.846-0.297
			c-0.627-0.15-1.244-0.365-1.848-0.643c-0.604-0.279-1.131-0.645-1.584-1.098s-0.818-1.004-1.098-1.654s-0.406-1.43-0.383-2.334
			v-6.863c-0.023-0.906,0.104-1.684,0.383-2.334s0.645-1.201,1.098-1.654s0.98-0.812,1.584-1.08
			c0.604-0.266,1.221-0.475,1.848-0.627c0.627-0.15,1.24-0.25,1.846-0.295c0.604-0.047,1.137-0.07,1.602-0.07l1.812-0.035
			c0.857,0,1.531,0.053,2.02,0.156c0.488,0.105,0.895,0.238,1.219,0.4v1.115h-4.109
			C272.752,143.107,272.107,143.143,271.377,143.213z"/>
		<path fill="#BFBFBF" d="M283.689,137.082c0,0.486-0.168,0.9-0.506,1.236c-0.336,0.336-0.748,0.504-1.236,0.504
			c-0.486,0-0.9-0.168-1.236-0.504s-0.504-0.75-0.504-1.236c0-0.465,0.168-0.871,0.504-1.221c0.336-0.348,0.75-0.521,1.236-0.521
			c0.488,0,0.9,0.174,1.236,0.521C283.521,136.211,283.689,136.617,283.689,137.082z M283.48,141.471h-3.1v19.02h3.1V141.471z"/>
		<path fill="#BFBFBF" d="M295.637,136.105c-0.557,0-1.109,0.035-1.654,0.105c-0.545,0.068-1.027,0.256-1.445,0.557
			c-0.418,0.303-0.748,0.756-0.992,1.359s-0.344,1.439-0.297,2.508v1.637h5.678v1.115c-0.324,0.162-0.73,0.295-1.219,0.4
			c-0.488,0.104-1.162,0.156-2.02,0.156h-2.439v16.547h-3.1v-16.582h-1.672v-1.637h1.672v-1.742
			c-0.047-1.346,0.191-2.426,0.713-3.238c0.523-0.812,1.174-1.43,1.951-1.848s1.615-0.689,2.508-0.818
			c0.895-0.127,1.689-0.191,2.387-0.191h3.17v1.115c-0.326,0.162-0.73,0.295-1.219,0.4
			C297.17,136.053,296.496,136.105,295.637,136.105z"/>
		<path fill="#BFBFBF" d="M302.709,137.082c0,0.486-0.168,0.9-0.506,1.236c-0.336,0.336-0.748,0.504-1.236,0.504
			c-0.486,0-0.9-0.168-1.236-0.504s-0.504-0.75-0.504-1.236c0-0.465,0.168-0.871,0.504-1.221c0.336-0.348,0.75-0.521,1.236-0.521
			c0.488,0,0.9,0.174,1.236,0.521C302.541,136.211,302.709,136.617,302.709,137.082z M302.5,141.471h-3.1v19.02h3.1V141.471z"/>
		<path fill="#BFBFBF" d="M313.072,143.213c-0.732,0.068-1.424,0.256-2.072,0.557c-0.65,0.303-1.191,0.762-1.621,1.375
			c-0.43,0.617-0.621,1.459-0.574,2.525v6.619c-0.047,1.068,0.145,1.904,0.574,2.508c0.43,0.605,0.971,1.057,1.621,1.359
			c0.648,0.301,1.34,0.486,2.072,0.557c0.73,0.07,1.375,0.105,1.934,0.105h4.109v1.148c-0.324,0.164-0.73,0.291-1.219,0.383
			c-0.488,0.094-1.162,0.141-2.02,0.141h-1.812c-0.465,0-0.998-0.023-1.602-0.07c-0.605-0.047-1.219-0.145-1.846-0.297
			c-0.627-0.15-1.244-0.365-1.848-0.643c-0.604-0.279-1.131-0.645-1.584-1.098s-0.818-1.004-1.098-1.654s-0.406-1.43-0.383-2.334
			v-6.863c-0.023-0.906,0.104-1.684,0.383-2.334s0.645-1.201,1.098-1.654s0.98-0.812,1.584-1.08
			c0.604-0.266,1.221-0.475,1.848-0.627c0.627-0.15,1.24-0.25,1.846-0.295c0.604-0.047,1.137-0.07,1.602-0.07l1.812-0.035
			c0.857,0,1.531,0.053,2.02,0.156c0.488,0.105,0.895,0.238,1.219,0.4v1.115h-4.109
			C314.447,143.107,313.803,143.143,313.072,143.213z"/>
		<path fill="#BFBFBF" d="M328.904,141.053c0.975,0,1.916,0.133,2.82,0.4c0.906,0.268,1.707,0.662,2.404,1.184
			c0.697,0.523,1.254,1.162,1.672,1.916c0.418,0.756,0.627,1.609,0.627,2.561v7.768c0,0.953-0.209,1.801-0.627,2.543
			c-0.418,0.744-0.975,1.377-1.672,1.898c-0.697,0.523-1.498,0.924-2.404,1.203c-0.904,0.277-1.846,0.418-2.82,0.418
			c-0.977,0-1.916-0.141-2.822-0.418c-0.906-0.279-1.707-0.68-2.402-1.203c-0.697-0.521-1.254-1.154-1.672-1.898
			c-0.42-0.742-0.629-1.59-0.629-2.543v-7.768c0-0.951,0.209-1.805,0.629-2.561c0.418-0.754,0.975-1.393,1.672-1.916
			c0.695-0.521,1.496-0.916,2.402-1.184S327.928,141.053,328.904,141.053z M333.363,147.219c0-1.324-0.383-2.41-1.15-3.258
			c-0.766-0.848-1.869-1.271-3.309-1.271c-1.441,0-2.543,0.424-3.309,1.271c-0.768,0.848-1.15,1.934-1.15,3.258v7.523
			c0,1.324,0.383,2.41,1.15,3.258c0.766,0.848,1.867,1.271,3.309,1.271c1.439,0,2.543-0.424,3.309-1.271
			c0.768-0.848,1.15-1.934,1.15-3.258V147.219z"/>
	</g>
</g>
<g>
	
		<radialGradient id="SVGID_1_" cx="178.4976" cy="109.8438" r="59.2122" gradientTransform="matrix(1.3854 0 0 0.8541 -71.1652 -30.1866)" gradientUnits="userSpaceOnUse">
		<stop  offset="0" style="stop-color:#3EC7F4"/>
		<stop  offset="0.4969" style="stop-color:#00A0CA"/>
		<stop  offset="1" style="stop-color:#003B75"/>
	</radialGradient>
	<ellipse fill="url(#SVGID_1_)" cx="176.125" cy="63.631" rx="82.033" ry="50.572"/>
	<g>
		<defs>
			<ellipse id="SVGID_2_" cx="176.124" cy="63.631" rx="82.433" ry="50.818"/>
		</defs>
		<clipPath id="SVGID_3_">
			<use xlink:href="#SVGID_2_"  overflow="visible"/>
		</clipPath>
		<path clip-path="url(#SVGID_3_)" fill="#FFFFFF" d="M216.668,76.404c0.412-0.237,3.178-1.727,3.66-2.011l0.055,0.021
			l51.574-24.969l-11.842-8.187l-33.551,16.409c-2.732-5.55-8.922-11.384-19.801-15.732c-23.553-9.42-56.454-9.865-73.342-0.999
			c-0.521,0.274-1.021,0.554-1.502,0.84l-0.053-0.021l-51.576,24.97l10.752,8.215l33.829-16.119
			c1.719,3.492,5.137,6.967,10.141,10.15l69.706,49.74l11.875-5.944l-45.726-32.171C185.928,85.376,204.529,83.397,216.668,76.404z
			 M147.872,46.865c11.163-5.862,32.909-5.568,48.479,0.659c10.211,4.082,15.268,9.717,14.389,14.765
			c-0.512,2.597-2.594,5.034-6.365,7.016c-11.162,5.86-32.909,5.567-48.478-0.66c-10.211-4.082-15.269-9.719-14.388-14.767
			C142.018,51.281,144.1,48.846,147.872,46.865z"/>
	</g>
</g>
</svg>
