<?xml version="1.0" encoding="utf-8"?>
<!-- Generator: Adobe Illustrator 16.0.0, SVG Export Plug-In . SVG Version: 6.00 Build 0)  -->
<!DOCTYPE svg PUBLIC "-//W3C//DTD SVG 1.1//EN" "http://www.w3.org/Graphics/SVG/1.1/DTD/svg11.dtd">
<svg version="1.1" xmlns="http://www.w3.org/2000/svg" xmlns:xlink="http://www.w3.org/1999/xlink" x="0px" y="0px" width="316px"
	 height="186px" viewBox="0 0 316 186" enable-background="new 0 0 316 186" xml:space="preserve">
<g id="Layer_1">
	<g>
		<g>
			<g>
				<path fill="#FFFFFF" d="M56.711,172.488c0.081,2.295,1.046,3.361,3.019,3.361c1.812,0,2.918-1.047,2.918-2.617
					c0-1.328-0.725-2.174-2.214-2.736l-1.731-0.664c-2.254-0.846-3.341-2.053-3.341-3.885c0-2.254,1.691-3.885,4.327-3.885
					c2.637,0,4.267,1.65,4.267,4.428h-1.63c-0.04-1.973-0.986-3.02-2.677-3.02c-1.59,0-2.697,0.986-2.697,2.314
					c0,1.248,0.704,1.973,2.133,2.516l1.832,0.705c2.274,0.865,3.321,1.953,3.321,4.105c0,2.516-1.731,4.146-4.589,4.146
					c-2.838,0-4.448-1.691-4.548-4.77H56.711z"/>
				<path fill="#FFFFFF" d="M67.4,176.977v-11.371h1.389v1.469c0.302-1.088,1.208-1.65,2.576-1.65c1.429,0,2.415,0.584,3.039,1.832
					c0.563-1.27,1.429-1.832,2.777-1.832c2.194,0,3.421,1.369,3.421,3.984v7.568h-1.489v-7.004c0-2.174-0.302-3.201-1.952-3.201
					c-1.53,0-2.375,1.107-2.375,3.221v6.984h-1.489v-7.004c0-2.174-0.342-3.201-1.993-3.201c-1.55,0-2.415,1.107-2.415,3.221v6.984
					H67.4z"/>
				<path fill="#FFFFFF" d="M91.935,176.977h-1.369v-1.73c-0.442,1.307-1.368,1.971-2.757,1.971c-2.395,0-3.904-2.053-3.904-5.715
					c0-3.965,1.53-6.098,4.085-6.098c1.147,0,2.013,0.463,2.556,1.428v-1.227h1.389V176.977z M88.071,166.771
					c-1.57,0-2.576,1.59-2.576,4.549c0,3.059,0.845,4.59,2.456,4.59c1.63,0,2.496-1.531,2.496-4.57
					C90.446,168.242,89.802,166.771,88.071,166.771z"/>
				<path fill="#FFFFFF" d="M99.564,165.424c0.201,0,0.463,0.02,0.745,0.061v1.428c-0.101,0-0.181,0-0.282,0
					c-1.751,0-2.596,0.947-2.596,2.939v7.125h-1.489v-11.371h1.328v1.77C97.552,166.107,98.377,165.424,99.564,165.424z"/>
				<path fill="#FFFFFF" d="M103.51,176.977v-10.164h-1.489v-1.207h1.489v-3.262h1.489v3.262h1.59v1.207h-1.59v10.164H103.51z"/>
				<path fill="#FFFFFF" d="M125.872,171.885c-0.041,3.48-1.731,5.373-4.73,5.373c-3.542,0-5.253-2.496-5.253-7.588
					c0-4.99,1.832-7.607,5.132-7.607c2.999,0,4.669,1.832,4.851,5.395h-1.49c-0.241-2.717-1.188-4.006-3.14-4.006
					c-2.516,0-3.723,2.072-3.723,6.219c0,4.188,1.167,6.199,3.723,6.199c1.973,0,2.979-1.328,3.039-3.984H125.872z"/>
				<path fill="#FFFFFF" d="M129.153,164.217v-1.873h1.489v1.873H129.153z M129.153,176.977v-11.371h1.489v11.371H129.153z"/>
				<path fill="#FFFFFF" d="M134.97,176.977v-10.164h-1.489v-1.207h1.489v-3.262h1.489v3.262h1.59v1.207h-1.59v10.164H134.97z"/>
				<path fill="#FFFFFF" d="M141.19,165.605l2.435,7.908c0.161,0.504,0.262,1.066,0.302,1.691c0.121-0.684,0.282-1.248,0.423-1.711
					l2.375-7.889h1.55l-4.75,15.275h-1.59l1.268-4.045l-3.583-11.23H141.19z"/>
				<path fill="#FFFFFF" d="M167.516,171.885c-0.039,3.48-1.73,5.373-4.729,5.373c-3.543,0-5.253-2.496-5.253-7.588
					c0-4.99,1.832-7.607,5.132-7.607c2.998,0,4.67,1.832,4.85,5.395h-1.488c-0.242-2.717-1.188-4.006-3.141-4.006
					c-2.516,0-3.723,2.072-3.723,6.219c0,4.188,1.168,6.199,3.723,6.199c1.973,0,2.979-1.328,3.039-3.984H167.516z"/>
				<path fill="#FFFFFF" d="M170.094,171.32c0-3.783,1.65-5.896,4.387-5.896c2.738,0,4.367,2.113,4.367,5.896
					s-1.609,5.896-4.367,5.896C171.725,177.217,170.094,175.104,170.094,171.32z M174.48,166.732c-1.791,0-2.797,1.568-2.797,4.588
					s1.006,4.59,2.797,4.59c1.812,0,2.799-1.551,2.799-4.59S176.293,166.732,174.48,166.732z"/>
				<path fill="#FFFFFF" d="M182.895,173.574c0.262,1.57,1.047,2.336,2.416,2.336c1.348,0,2.254-0.826,2.254-1.912
					c0-1.027-0.584-1.51-1.832-1.912l-1.629-0.523c-1.65-0.523-2.416-1.449-2.416-2.939c0-1.912,1.389-3.18,3.684-3.18
					c2.174,0,3.422,1.188,3.623,3.502h-1.43c-0.121-1.428-0.945-2.213-2.273-2.213c-1.209,0-2.033,0.785-2.033,1.77
					c0,0.846,0.463,1.27,1.469,1.592l1.57,0.502c2.012,0.645,2.838,1.551,2.838,3.32c0,1.973-1.469,3.281-3.885,3.281
					c-2.234,0-3.623-1.328-3.824-3.623H182.895z"/>
				<path fill="#FFFFFF" d="M192.799,176.977v-10.164h-1.49v-1.207h1.49v-3.262h1.49v3.262h1.59v1.207h-1.59v10.164H192.799z"/>
				<path fill="#FFFFFF" d="M206.164,176.977h-1.369v-1.73c-0.443,1.307-1.369,1.971-2.758,1.971c-2.395,0-3.904-2.053-3.904-5.715
					c0-3.965,1.529-6.098,4.086-6.098c1.146,0,2.012,0.463,2.557,1.428v-1.227h1.389V176.977z M202.299,166.771
					c-1.57,0-2.576,1.59-2.576,4.549c0,3.059,0.846,4.59,2.455,4.59c1.631,0,2.496-1.531,2.496-4.57
					C204.674,168.242,204.029,166.771,202.299,166.771z"/>
				<path fill="#FFFFFF" d="M217.455,176.977v-14.633h3.926c3.24,0,4.93,1.49,4.93,4.207c0,2.535-1.408,4.227-3.621,4.348
					l4.004,6.078h-1.73l-4.77-7.266h1.488c2.014,0,3.039-1.006,3.039-2.918c0-2.014-1.066-3.039-2.998-3.039h-2.777v13.223H217.455z
					"/>
				<path fill="#FFFFFF" d="M229.775,164.217v-1.873h1.488v1.873H229.775z M229.775,176.977v-11.371h1.488v11.371H229.775z"/>
				<path fill="#FFFFFF" d="M240.863,169.57c-0.141-1.893-0.885-2.838-2.254-2.838c-1.59,0-2.395,1.529-2.395,4.588
					c0,3.039,0.824,4.59,2.395,4.59c1.369,0,2.113-0.967,2.254-2.859h1.41c-0.082,2.697-1.41,4.166-3.664,4.166
					c-2.535,0-3.984-2.031-3.984-5.896c0-3.863,1.449-5.896,3.965-5.896c2.254,0,3.602,1.449,3.684,4.146H240.863z"/>
				<path fill="#FFFFFF" d="M253.143,176.977h-1.369v-1.73c-0.443,1.307-1.369,1.971-2.758,1.971c-2.395,0-3.904-2.053-3.904-5.715
					c0-3.965,1.529-6.098,4.086-6.098c1.146,0,2.012,0.463,2.557,1.428v-1.227h1.389V176.977z M249.277,166.771
					c-1.57,0-2.576,1.59-2.576,4.549c0,3.059,0.846,4.59,2.455,4.59c1.631,0,2.496-1.531,2.496-4.57
					C251.652,168.242,251.008,166.771,249.277,166.771z"/>
			</g>
		</g>
		<g>
			
				<radialGradient id="SVGID_1_" cx="156.4961" cy="102.2051" r="59.2124" gradientTransform="matrix(1.3854 0 0 0.8541 -62.6864 -31.3538)" gradientUnits="userSpaceOnUse">
				<stop  offset="0" style="stop-color:#3EC7F4"/>
				<stop  offset="0.4969" style="stop-color:#00A0CA"/>
				<stop  offset="1" style="stop-color:#003B75"/>
			</radialGradient>
			<ellipse fill="url(#SVGID_1_)" cx="154.123" cy="55.939" rx="82.033" ry="50.573"/>
			<g>
				<defs>
					<ellipse id="SVGID_2_" cx="154.122" cy="55.939" rx="82.433" ry="50.819"/>
				</defs>
				<clipPath id="SVGID_3_">
					<use xlink:href="#SVGID_2_"  overflow="visible"/>
				</clipPath>
				<path clip-path="url(#SVGID_3_)" fill="#FFFFFF" d="M194.666,68.712c0.412-0.237,3.178-1.727,3.66-2.011l0.055,0.021
					l51.574-24.969l-11.842-8.187l-33.551,16.409c-2.732-5.55-8.922-11.384-19.801-15.732c-23.553-9.42-56.455-9.865-73.342-0.999
					c-0.521,0.274-1.021,0.554-1.502,0.84l-0.053-0.021l-51.576,24.97l10.752,8.215L102.87,51.13
					c1.719,3.492,5.137,6.967,10.141,10.15l69.707,49.741l11.875-5.945l-45.726-32.17C163.926,77.684,182.527,75.706,194.666,68.712
					z M125.87,39.173c11.163-5.862,32.909-5.568,48.48,0.659c10.211,4.082,15.268,9.717,14.389,14.765
					c-0.512,2.597-2.594,5.034-6.365,7.016c-11.162,5.86-32.91,5.567-48.479-0.66c-10.211-4.082-15.269-9.719-14.388-14.767
					C120.015,43.589,122.097,41.154,125.87,39.173z"/>
			</g>
		</g>
		<g>
			<path fill="#FFFFFF" d="M13.051,126.732c0.72,0,1.568,0.064,2.544,0.191s1.905,0.4,2.788,0.818
				c0.882,0.418,1.62,1.027,2.213,1.83c0.592,0.801,0.876,1.887,0.854,3.258v4.879c0.023,1.371-0.261,2.457-0.854,3.258
				c-0.593,0.803-1.331,1.412-2.213,1.83c-0.883,0.418-1.812,0.691-2.788,0.818c-0.976,0.129-1.824,0.191-2.544,0.191H7.057v8.992
				H3.956v-26.066H13.051z M18.348,132.936c0.023-1.068-0.18-1.912-0.61-2.527c-0.43-0.615-0.964-1.074-1.603-1.377
				c-0.639-0.301-1.324-0.486-2.056-0.557c-0.732-0.07-1.377-0.105-1.934-0.105H7.057v13.766h5.088c0.557,0,1.202-0.035,1.934-0.105
				c0.731-0.068,1.417-0.254,2.056-0.557c0.639-0.301,1.173-0.754,1.603-1.359c0.43-0.604,0.633-1.439,0.61-2.508V132.936z"/>
			<path fill="#FFFFFF" d="M36.608,133.771h3.102v13.416c0,0.953-0.215,1.801-0.645,2.545c-0.43,0.742-0.993,1.375-1.69,1.898
				s-1.499,0.924-2.404,1.203c-0.906,0.277-1.847,0.418-2.823,0.418c-0.976,0-1.917-0.141-2.823-0.418
				c-0.906-0.279-1.708-0.68-2.405-1.203c-0.697-0.523-1.254-1.156-1.672-1.898c-0.418-0.744-0.627-1.592-0.627-2.545v-13.416h3.102
				v13.277c0,1.324,0.377,2.41,1.132,3.258s1.853,1.271,3.293,1.271c1.44,0,2.544-0.424,3.311-1.271s1.15-1.934,1.15-3.258V133.771z
				"/>
			<path fill="#FFFFFF" d="M52.603,133.963c0.976,0.129,1.905,0.4,2.788,0.818c0.883,0.418,1.621,1.029,2.213,1.83
				s0.876,1.877,0.854,3.223v12.965h-3.101v-12.824c0.022-1.068-0.174-1.91-0.593-2.527c-0.418-0.615-0.953-1.074-1.603-1.377
				c-0.65-0.301-1.341-0.486-2.073-0.557s-1.376-0.105-1.934-0.105h-2.857v17.391h-3.102v-19.027h6.865
				C50.779,133.771,51.627,133.836,52.603,133.963z"/>
			<path fill="#FFFFFF" d="M65.514,148.809c0.313,0.568,0.714,1.021,1.202,1.359c0.488,0.336,1.034,0.568,1.638,0.697
				c0.604,0.127,1.185,0.215,1.743,0.26v1.674c-0.488,0-1.022-0.023-1.603-0.07c-0.581-0.047-1.18-0.145-1.795-0.297
				c-0.616-0.15-1.208-0.365-1.777-0.645c-0.569-0.277-1.075-0.645-1.516-1.098c-0.441-0.453-0.79-1.004-1.045-1.654
				c-0.256-0.65-0.372-1.43-0.349-2.336v-2.893v-3.938v-0.035v-9.723h3.067v5.367c0.859-0.395,1.754-0.645,2.683-0.748
				c0.929-0.105,1.73-0.158,2.405-0.158v1.742c-0.535,0.047-1.098,0.129-1.69,0.244c-0.592,0.117-1.132,0.326-1.621,0.627
				c-0.488,0.303-0.9,0.715-1.237,1.238c-0.337,0.521-0.518,1.201-0.54,2.039v6.133C65.055,147.502,65.2,148.238,65.514,148.809z"/>
			<path fill="#FFFFFF" d="M79.366,133.842c0.72,0,1.568,0.062,2.544,0.191c0.976,0.127,1.899,0.4,2.771,0.818
				s1.608,1.033,2.213,1.848c0.604,0.812,0.894,1.893,0.871,3.24v12.859h-6.9c-0.72,0-1.568-0.064-2.544-0.191
				c-0.976-0.129-1.899-0.402-2.771-0.82c-0.871-0.418-1.609-1.027-2.212-1.828c-0.604-0.803-0.895-1.889-0.872-3.26
				c0.023-1.416,0.401-2.566,1.133-3.449s1.673-1.568,2.823-2.057s2.445-0.795,3.885-0.924c1.44-0.127,2.893-0.145,4.356-0.051
				v-0.141c0.022-1.068-0.181-1.916-0.61-2.543c-0.43-0.627-0.971-1.098-1.621-1.412c-0.651-0.312-1.336-0.51-2.056-0.592
				c-0.72-0.082-1.359-0.123-1.917-0.123h-2.335v-1.01c0.325-0.162,0.732-0.297,1.22-0.4
				C77.833,133.893,78.507,133.842,79.366,133.842z M84.664,141.891c-1.185-0.07-2.318-0.064-3.398,0.018s-2.039,0.291-2.875,0.627
				c-0.836,0.338-1.51,0.832-2.021,1.48c-0.511,0.652-0.779,1.512-0.802,2.58c-0.023,1.068,0.18,1.904,0.61,2.508
				c0.43,0.605,0.97,1.059,1.621,1.359c0.65,0.303,1.335,0.488,2.056,0.559c0.72,0.068,1.359,0.104,1.917,0.104h2.893V141.891z"/>
			<path fill="#FFFFFF" d="M110.346,126.732c0.72,0,1.568,0.064,2.544,0.191s1.905,0.4,2.788,0.818
				c0.882,0.418,1.62,1.027,2.213,1.83c0.592,0.801,0.876,1.887,0.854,3.258v4.879c0.023,1.371-0.261,2.457-0.854,3.258
				c-0.593,0.803-1.331,1.412-2.213,1.83c-0.883,0.418-1.812,0.691-2.788,0.818c-0.976,0.129-1.824,0.191-2.544,0.191h-5.994v8.992
				h-3.102v-26.066H110.346z M115.643,132.936c0.023-1.068-0.18-1.912-0.61-2.527c-0.43-0.615-0.964-1.074-1.603-1.377
				c-0.639-0.301-1.324-0.486-2.056-0.557c-0.732-0.07-1.377-0.105-1.934-0.105h-5.088v13.766h5.088
				c0.557,0,1.202-0.035,1.934-0.105c0.731-0.068,1.417-0.254,2.056-0.557c0.639-0.301,1.173-0.754,1.603-1.359
				c0.43-0.604,0.633-1.439,0.61-2.508V132.936z"/>
			<path fill="#FFFFFF" d="M129.582,133.354c0.953,0,1.882,0.145,2.788,0.436c0.906,0.291,1.702,0.715,2.387,1.271
				s1.226,1.236,1.621,2.039c0.395,0.801,0.569,1.701,0.523,2.701c-0.047,0.883-0.285,1.648-0.714,2.299
				c-0.43,0.65-0.976,1.197-1.638,1.639s-1.411,0.789-2.248,1.045s-1.685,0.436-2.544,0.541c-0.86,0.104-1.702,0.133-2.526,0.086
				c-0.825-0.047-1.551-0.15-2.178-0.312v1.742c0.023,1.021,0.255,1.818,0.697,2.387c0.441,0.57,0.976,0.992,1.603,1.271
				c0.627,0.279,1.294,0.453,2.003,0.523c0.708,0.068,1.342,0.104,1.899,0.104h1.394h2.334v1.115c-0.325,0.164-0.731,0.297-1.22,0.4
				c-0.488,0.105-1.162,0.158-2.021,0.158h-1.394c-0.72,0-1.568-0.064-2.544-0.191c-0.976-0.129-1.899-0.402-2.771-0.82
				c-0.871-0.418-1.609-1.027-2.212-1.828c-0.604-0.803-0.895-1.889-0.872-3.26v-5.541c0-1.115,0.174-2.148,0.523-3.102
				c0.349-0.951,0.848-1.777,1.499-2.473c0.65-0.697,1.446-1.244,2.387-1.639C127.299,133.551,128.374,133.354,129.582,133.354z
				 M133.973,139.625c0.046-0.766-0.041-1.434-0.262-2.004c-0.221-0.568-0.54-1.051-0.958-1.445
				c-0.418-0.395-0.901-0.691-1.446-0.889c-0.546-0.197-1.121-0.297-1.725-0.297c-1.394,0-2.498,0.453-3.311,1.359
				c-0.813,0.906-1.22,2.08-1.22,3.52v3.59c1.277,0.117,2.451,0.129,3.52,0.035c1.068-0.094,1.992-0.291,2.771-0.592
				c0.778-0.303,1.399-0.721,1.865-1.256C133.671,141.113,133.926,140.439,133.973,139.625z"/>
			<path fill="#FFFFFF" d="M148.261,133.771h3.241v1.08c-0.326,0.162-0.732,0.279-1.22,0.348c-0.488,0.07-1.162,0.141-2.021,0.209
				c-0.558,0.047-1.145,0.141-1.76,0.279c-0.616,0.141-1.174,0.379-1.673,0.715c-0.5,0.338-0.906,0.789-1.22,1.359
				c-0.313,0.568-0.459,1.307-0.436,2.213v12.824h-3.102v-12.859c0-0.697,0.104-1.406,0.313-2.125
				c0.209-0.721,0.61-1.383,1.202-1.986c0.593-0.605,1.423-1.098,2.492-1.482C145.147,133.963,146.541,133.771,148.261,133.771z"/>
			<path fill="#FFFFFF" d="M157.25,126.732v19.863c-0.023,0.953,0.133,1.73,0.47,2.334c0.337,0.605,0.767,1.08,1.289,1.43
				c0.523,0.348,1.098,0.598,1.727,0.748c0.627,0.152,1.23,0.24,1.811,0.262v1.43c-0.486,0-1.033-0.023-1.637-0.07
				c-0.605-0.047-1.221-0.145-1.848-0.297c-0.627-0.15-1.243-0.365-1.847-0.645c-0.604-0.277-1.133-0.645-1.586-1.098
				c-0.453-0.453-0.819-1.004-1.098-1.654s-0.407-1.43-0.383-2.336v-19.967H157.25z"/>
			<path fill="#FFFFFF" d="M172.619,133.842c0.719,0,1.568,0.062,2.543,0.191c0.977,0.127,1.9,0.4,2.771,0.818
				s1.607,1.033,2.213,1.848c0.604,0.812,0.895,1.893,0.871,3.24v12.859h-6.9c-0.721,0-1.568-0.064-2.543-0.191
				c-0.977-0.129-1.9-0.402-2.771-0.82s-1.609-1.027-2.213-1.828c-0.604-0.803-0.895-1.889-0.871-3.26
				c0.023-1.416,0.4-2.566,1.133-3.449s1.672-1.568,2.822-2.057s2.445-0.795,3.887-0.924c1.439-0.127,2.893-0.145,4.355-0.051
				v-0.141c0.023-1.068-0.18-1.916-0.609-2.543c-0.432-0.627-0.971-1.098-1.621-1.412c-0.65-0.312-1.336-0.51-2.057-0.592
				s-1.359-0.123-1.916-0.123h-2.334v-1.01c0.324-0.162,0.73-0.297,1.219-0.4C171.086,133.893,171.76,133.842,172.619,133.842z
				 M177.916,141.891c-1.186-0.07-2.318-0.064-3.398,0.018s-2.039,0.291-2.875,0.627c-0.836,0.338-1.51,0.832-2.021,1.48
				c-0.51,0.652-0.777,1.512-0.801,2.58s0.18,1.904,0.609,2.508c0.43,0.605,0.971,1.059,1.621,1.359
				c0.65,0.303,1.336,0.488,2.057,0.559c0.719,0.068,1.357,0.104,1.916,0.104h2.893V141.891z"/>
			<path fill="#FFFFFF" d="M203.598,126.732c0.721,0,1.568,0.064,2.545,0.191c0.975,0.127,1.904,0.4,2.787,0.818
				s1.621,1.027,2.213,1.83c0.592,0.801,0.877,1.887,0.854,3.258v4.879c0.023,1.371-0.262,2.457-0.854,3.258
				c-0.592,0.803-1.33,1.412-2.213,1.83s-1.812,0.691-2.787,0.818c-0.977,0.129-1.824,0.191-2.545,0.191h-5.994v8.992h-3.102
				v-26.066H203.598z M208.895,132.936c0.023-1.068-0.18-1.912-0.609-2.527s-0.965-1.074-1.604-1.377
				c-0.639-0.301-1.324-0.486-2.055-0.557c-0.732-0.07-1.377-0.105-1.936-0.105h-5.088v13.766h5.088
				c0.559,0,1.203-0.035,1.936-0.105c0.73-0.068,1.416-0.254,2.055-0.557c0.639-0.301,1.174-0.754,1.604-1.359
				c0.43-0.604,0.633-1.439,0.609-2.508V132.936z"/>
			<path fill="#FFFFFF" d="M222.102,133.842c0.721,0,1.568,0.062,2.545,0.191c0.975,0.127,1.898,0.4,2.77,0.818
				s1.609,1.033,2.213,1.848c0.604,0.812,0.895,1.893,0.871,3.24v12.859h-6.898c-0.721,0-1.568-0.064-2.545-0.191
				c-0.977-0.129-1.898-0.402-2.77-0.82s-1.609-1.027-2.213-1.828c-0.605-0.803-0.895-1.889-0.871-3.26
				c0.021-1.416,0.4-2.566,1.131-3.449c0.732-0.883,1.674-1.568,2.824-2.057c1.148-0.488,2.443-0.795,3.885-0.924
				c1.439-0.127,2.893-0.145,4.355-0.051v-0.141c0.023-1.068-0.18-1.916-0.609-2.543s-0.971-1.098-1.621-1.412
				c-0.65-0.312-1.336-0.51-2.055-0.592c-0.721-0.082-1.359-0.123-1.918-0.123h-2.334v-1.01c0.324-0.162,0.732-0.297,1.219-0.4
				C220.568,133.893,221.242,133.842,222.102,133.842z M227.398,141.891c-1.184-0.07-2.316-0.064-3.396,0.018
				s-2.039,0.291-2.875,0.627c-0.836,0.338-1.512,0.832-2.021,1.48c-0.512,0.652-0.779,1.512-0.801,2.58
				c-0.023,1.068,0.18,1.904,0.609,2.508c0.43,0.605,0.969,1.059,1.619,1.359c0.65,0.303,1.336,0.488,2.057,0.559
				c0.721,0.068,1.359,0.104,1.916,0.104h2.893V141.891z"/>
			<path fill="#FFFFFF" d="M241.426,135.514c-0.732,0.07-1.424,0.256-2.074,0.557c-0.65,0.303-1.191,0.762-1.621,1.377
				c-0.43,0.617-0.621,1.459-0.574,2.527v6.621c-0.047,1.068,0.145,1.904,0.574,2.508c0.43,0.605,0.971,1.059,1.621,1.359
				c0.65,0.303,1.342,0.488,2.074,0.559c0.73,0.068,1.375,0.104,1.934,0.104h4.111v1.15c-0.324,0.162-0.73,0.291-1.219,0.383
				c-0.488,0.094-1.162,0.141-2.021,0.141h-1.812c-0.465,0-0.998-0.023-1.604-0.07c-0.604-0.047-1.219-0.145-1.846-0.297
				c-0.627-0.15-1.244-0.365-1.848-0.645c-0.604-0.277-1.133-0.645-1.586-1.098s-0.818-1.004-1.098-1.654
				c-0.277-0.65-0.406-1.43-0.383-2.336v-6.865c-0.023-0.904,0.105-1.684,0.383-2.334c0.279-0.65,0.645-1.203,1.098-1.656
				c0.453-0.451,0.982-0.812,1.586-1.08c0.604-0.266,1.221-0.475,1.848-0.627c0.627-0.15,1.242-0.248,1.846-0.295
				c0.605-0.047,1.139-0.07,1.604-0.07l1.812-0.035c0.859,0,1.533,0.053,2.021,0.156c0.488,0.105,0.895,0.238,1.219,0.4v1.115
				h-4.111C242.801,135.408,242.156,135.443,241.426,135.514z"/>
			<path fill="#FFFFFF" d="M258.17,128.646l-4.252,4.984h-2.195l3.068-4.984H258.17z M251.932,152.799V135.93H255v16.869H251.932z"
				/>
			<path fill="#FFFFFF" d="M268.625,128.404c-0.559,0-1.111,0.035-1.656,0.105c-0.547,0.068-1.027,0.256-1.445,0.557
				c-0.42,0.303-0.75,0.756-0.994,1.359s-0.344,1.441-0.297,2.51v1.637h5.682v1.115c-0.326,0.164-0.732,0.297-1.221,0.4
				c-0.488,0.105-1.162,0.158-2.021,0.158h-2.439v16.553h-3.102v-16.588h-1.672v-1.639h1.672v-1.742
				c-0.047-1.348,0.193-2.428,0.715-3.24c0.523-0.812,1.174-1.43,1.951-1.848c0.779-0.418,1.615-0.691,2.51-0.818
				s1.689-0.191,2.387-0.191h3.172v1.115c-0.326,0.162-0.732,0.295-1.221,0.4C270.158,128.352,269.482,128.404,268.625,128.404z"/>
			<path fill="#FFFFFF" d="M276.57,129.381c0,0.488-0.17,0.9-0.506,1.236c-0.338,0.338-0.75,0.506-1.238,0.506
				c-0.486,0-0.9-0.168-1.236-0.506c-0.336-0.336-0.506-0.748-0.506-1.236c0-0.465,0.17-0.871,0.506-1.221
				c0.336-0.348,0.75-0.521,1.236-0.521c0.488,0,0.9,0.174,1.238,0.521C276.4,128.51,276.57,128.916,276.57,129.381z
				 M276.361,133.771h-3.102v19.027h3.102V133.771z"/>
			<path fill="#FFFFFF" d="M287.809,135.514c-0.732,0.07-1.424,0.256-2.074,0.557c-0.65,0.303-1.191,0.762-1.621,1.377
				c-0.43,0.617-0.621,1.459-0.574,2.527v6.621c-0.047,1.068,0.145,1.904,0.574,2.508c0.43,0.605,0.971,1.059,1.621,1.359
				c0.65,0.303,1.342,0.488,2.074,0.559c0.73,0.068,1.375,0.104,1.934,0.104h4.111v1.15c-0.324,0.162-0.73,0.291-1.219,0.383
				c-0.488,0.094-1.162,0.141-2.021,0.141h-1.812c-0.465,0-0.998-0.023-1.604-0.07c-0.604-0.047-1.219-0.145-1.846-0.297
				c-0.627-0.15-1.244-0.365-1.848-0.645c-0.604-0.277-1.133-0.645-1.586-1.098s-0.818-1.004-1.098-1.654
				c-0.277-0.65-0.406-1.43-0.383-2.336v-6.865c-0.023-0.904,0.105-1.684,0.383-2.334c0.279-0.65,0.645-1.203,1.098-1.656
				c0.453-0.451,0.982-0.812,1.586-1.08c0.604-0.266,1.221-0.475,1.848-0.627c0.627-0.15,1.242-0.248,1.846-0.295
				c0.605-0.047,1.139-0.07,1.604-0.07l1.812-0.035c0.859,0,1.533,0.053,2.021,0.156c0.488,0.105,0.895,0.238,1.219,0.4v1.115
				h-4.111C289.184,135.408,288.539,135.443,287.809,135.514z"/>
			<path fill="#FFFFFF" d="M304.518,133.354c0.975,0,1.916,0.133,2.822,0.4s1.707,0.662,2.404,1.186
				c0.697,0.521,1.254,1.16,1.672,1.916c0.42,0.756,0.629,1.609,0.629,2.561v7.771c0,0.953-0.209,1.801-0.629,2.545
				c-0.418,0.742-0.975,1.375-1.672,1.898s-1.498,0.924-2.404,1.203c-0.906,0.277-1.848,0.418-2.822,0.418
				c-0.977,0-1.918-0.141-2.824-0.418c-0.904-0.279-1.707-0.68-2.404-1.203s-1.254-1.156-1.672-1.898
				c-0.418-0.744-0.627-1.592-0.627-2.545v-7.771c0-0.951,0.209-1.805,0.627-2.561s0.975-1.395,1.672-1.916
				c0.697-0.523,1.5-0.918,2.404-1.186C302.6,133.486,303.541,133.354,304.518,133.354z M308.977,139.521
				c0-1.324-0.383-2.41-1.148-3.258c-0.768-0.848-1.871-1.273-3.311-1.273c-1.441,0-2.545,0.426-3.311,1.273
				c-0.768,0.848-1.15,1.934-1.15,3.258v7.527c0,1.324,0.383,2.41,1.15,3.258c0.766,0.848,1.869,1.271,3.311,1.271
				c1.439,0,2.543-0.424,3.311-1.271c0.766-0.848,1.148-1.934,1.148-3.258V139.521z"/>
		</g>
	</g>
</g>
<g id="Layer_3" display="none">
	<text transform="matrix(1 0 0 1 2.564 152.4902)" display="inline"><tspan x="0" y="0" fill="#6D6E71" font-family="'Ageone'" font-size="34.8483">Punta Perla Pac</tspan><tspan x="247.698" y="0" fill="#6D6E71" font-family="'MyriadPro-Regular'" font-size="34.8483">í</tspan><tspan x="256.723" y="0" fill="#6D6E71" font-family="'Ageone'" font-size="34.8483">fico</tspan></text>
</g>
<g id="Layer_2" display="none">
	<g display="inline">
		<g>
			<path fill="#6D6E71" d="M2.912,126.434c0.72,0,1.568,0.064,2.543,0.191c0.976,0.129,1.904,0.4,2.787,0.818
				c0.882,0.418,1.62,1.029,2.212,1.83c0.592,0.801,0.876,1.887,0.854,3.256v4.877c0.023,1.371-0.261,2.457-0.854,3.258
				c-0.592,0.801-1.33,1.41-2.212,1.828c-0.883,0.418-1.811,0.691-2.787,0.818c-0.975,0.129-1.823,0.191-2.543,0.191H-3.08v8.988
				h-3.1v-26.057H2.912z M8.207,132.635c0.023-1.068-0.18-1.91-0.609-2.525c-0.43-0.615-0.964-1.074-1.603-1.377
				c-0.639-0.301-1.324-0.486-2.055-0.557s-1.376-0.105-1.933-0.105H-3.08v13.76h5.086c0.557,0,1.202-0.035,1.933-0.104
				c0.731-0.07,1.416-0.256,2.055-0.559c0.638-0.301,1.172-0.754,1.603-1.357c0.429-0.604,0.632-1.439,0.609-2.508V132.635z"/>
			<path fill="#6D6E71" d="M25.589,133.471h3.1v13.41c0,0.953-0.215,1.801-0.645,2.543c-0.43,0.744-0.993,1.377-1.689,1.898
				c-0.696,0.523-1.498,0.924-2.403,1.203c-0.906,0.277-1.846,0.418-2.822,0.418c-0.975,0-1.916-0.141-2.821-0.418
				c-0.906-0.279-1.707-0.68-2.404-1.203c-0.696-0.521-1.254-1.154-1.672-1.898c-0.418-0.742-0.627-1.59-0.627-2.543v-13.41h3.1
				v13.271c0,1.324,0.377,2.41,1.132,3.258c0.754,0.848,1.852,1.271,3.292,1.271s2.543-0.424,3.31-1.271
				c0.766-0.848,1.149-1.934,1.149-3.258V133.471z"/>
			<path fill="#6D6E71" d="M40.706,133.662c0.976,0.127,1.904,0.4,2.787,0.818c0.882,0.418,1.62,1.027,2.212,1.828
				c0.592,0.803,0.876,1.877,0.854,3.223v12.959h-3.101v-12.82c0.023-1.066-0.174-1.908-0.592-2.525
				c-0.418-0.613-0.953-1.072-1.603-1.375c-0.65-0.301-1.341-0.488-2.073-0.557c-0.731-0.07-1.376-0.105-1.933-0.105h-2.856v17.383
				h-3.1v-19.02h6.862C38.883,133.471,39.731,133.535,40.706,133.662z"/>
			<path fill="#6D6E71" d="M52.741,148.502c0.313,0.568,0.714,1.021,1.202,1.357c0.488,0.338,1.033,0.57,1.637,0.697
				c0.604,0.127,1.184,0.215,1.742,0.262v1.672c-0.488,0-1.022-0.023-1.603-0.07c-0.581-0.047-1.179-0.145-1.794-0.297
				c-0.616-0.15-1.208-0.365-1.776-0.643c-0.569-0.279-1.075-0.645-1.515-1.098c-0.441-0.453-0.79-1.004-1.045-1.654
				c-0.256-0.65-0.372-1.43-0.348-2.334v-2.893v-3.936v-0.035v-9.719h3.065v5.365c0.859-0.395,1.753-0.645,2.682-0.75
				c0.929-0.104,1.73-0.156,2.404-0.156v1.742c-0.535,0.047-1.098,0.127-1.689,0.244c-0.592,0.115-1.132,0.324-1.62,0.627
				c-0.488,0.301-0.9,0.713-1.236,1.236c-0.337,0.521-0.517,1.201-0.54,2.037v6.131C52.282,147.195,52.428,147.932,52.741,148.502z"
				/>
			<path fill="#6D6E71" d="M65.717,133.541c0.719,0,1.567,0.062,2.542,0.191c0.976,0.127,1.898,0.4,2.77,0.818
				c0.871,0.418,1.608,1.033,2.212,1.846c0.604,0.812,0.894,1.893,0.871,3.24v12.854h-6.897c-0.72,0-1.567-0.064-2.543-0.191
				c-0.975-0.129-1.898-0.4-2.769-0.818c-0.871-0.418-1.608-1.029-2.212-1.83c-0.604-0.801-0.895-1.887-0.871-3.256
				c0.023-1.416,0.401-2.566,1.132-3.449s1.672-1.568,2.821-2.055c1.15-0.488,2.444-0.795,3.884-0.924
				c1.439-0.127,2.891-0.145,4.354-0.053v-0.139c0.023-1.068-0.18-1.916-0.609-2.543c-0.43-0.627-0.97-1.098-1.62-1.41
				c-0.651-0.314-1.336-0.512-2.056-0.594c-0.72-0.08-1.358-0.121-1.916-0.121h-2.334v-1.01c0.325-0.162,0.731-0.297,1.219-0.4
				C64.184,133.592,64.857,133.541,65.717,133.541z M71.011,141.586c-1.184-0.068-2.316-0.062-3.396,0.018
				c-1.08,0.082-2.038,0.291-2.874,0.627c-0.836,0.338-1.51,0.832-2.021,1.48c-0.511,0.65-0.778,1.51-0.801,2.578
				c-0.023,1.068,0.179,1.904,0.609,2.508c0.429,0.605,0.969,1.057,1.62,1.359c0.65,0.301,1.335,0.486,2.055,0.557
				s1.359,0.105,1.916,0.105h2.891V141.586z"/>
			<path fill="#6D6E71" d="M94.942,126.434c0.72,0,1.568,0.064,2.543,0.191c0.976,0.129,1.904,0.4,2.787,0.818
				c0.882,0.418,1.62,1.029,2.212,1.83c0.592,0.801,0.876,1.887,0.854,3.256v4.877c0.023,1.371-0.261,2.457-0.854,3.258
				c-0.592,0.801-1.33,1.41-2.212,1.828c-0.883,0.418-1.811,0.691-2.787,0.818c-0.975,0.129-1.823,0.191-2.543,0.191h-5.991v8.988
				h-3.1v-26.057H94.942z M100.237,132.635c0.023-1.068-0.18-1.91-0.609-2.525c-0.43-0.615-0.964-1.074-1.603-1.377
				c-0.639-0.301-1.324-0.486-2.055-0.557s-1.376-0.105-1.933-0.105h-5.086v13.76h5.086c0.557,0,1.202-0.035,1.933-0.104
				c0.731-0.07,1.416-0.256,2.055-0.559c0.638-0.301,1.172-0.754,1.603-1.357c0.429-0.604,0.632-1.439,0.609-2.508V132.635z"/>
			<path fill="#6D6E71" d="M112.568,133.541c0.719,0,1.567,0.062,2.542,0.191c0.976,0.127,1.898,0.4,2.77,0.818
				c0.871,0.418,1.608,1.033,2.212,1.846c0.604,0.812,0.894,1.893,0.871,3.24v12.854h-6.897c-0.72,0-1.567-0.064-2.543-0.191
				c-0.975-0.129-1.898-0.4-2.769-0.818c-0.871-0.418-1.608-1.029-2.212-1.83c-0.604-0.801-0.895-1.887-0.871-3.256
				c0.023-1.416,0.401-2.566,1.132-3.449s1.672-1.568,2.821-2.055c1.15-0.488,2.444-0.795,3.884-0.924
				c1.439-0.127,2.891-0.145,4.354-0.053v-0.139c0.023-1.068-0.18-1.916-0.609-2.543c-0.43-0.627-0.97-1.098-1.62-1.41
				c-0.651-0.314-1.336-0.512-2.056-0.594c-0.72-0.08-1.358-0.121-1.916-0.121h-2.334v-1.01c0.325-0.162,0.731-0.297,1.219-0.4
				C111.036,133.592,111.708,133.541,112.568,133.541z M117.863,141.586c-1.184-0.068-2.316-0.062-3.396,0.018
				c-1.08,0.082-2.038,0.291-2.874,0.627c-0.836,0.338-1.51,0.832-2.021,1.48c-0.511,0.65-0.778,1.51-0.801,2.578
				c-0.023,1.068,0.179,1.904,0.609,2.508c0.429,0.605,0.969,1.057,1.62,1.359c0.65,0.301,1.335,0.486,2.055,0.557
				s1.359,0.105,1.916,0.105h2.891V141.586z"/>
			<path fill="#6D6E71" d="M126.919,126.434v19.855c-0.023,0.953,0.133,1.73,0.47,2.334c0.336,0.604,0.767,1.08,1.289,1.428
				c0.522,0.35,1.097,0.6,1.724,0.75s1.231,0.238,1.812,0.262v1.428c-0.488,0-1.034-0.023-1.637-0.07
				c-0.604-0.047-1.219-0.145-1.846-0.297c-0.627-0.15-1.243-0.365-1.846-0.643c-0.604-0.279-1.132-0.645-1.585-1.098
				c-0.453-0.453-0.819-1.004-1.097-1.654c-0.279-0.65-0.407-1.43-0.383-2.334v-19.961H126.919z"/>
			<path fill="#6D6E71" d="M137.752,134.689v17.801h-3.1v-19.438h7.559c1.161,0,2.27,0.191,3.327,0.574s1.945,0.947,2.665,1.689
				c0.72-0.742,1.603-1.307,2.647-1.689s2.16-0.574,3.344-0.574c0.976,0,1.916,0.133,2.822,0.4s1.707,0.662,2.404,1.184
				c0.697,0.523,1.254,1.162,1.672,1.916c0.418,0.756,0.627,1.609,0.627,2.561v13.377h-3.1v-13.271c0-1.324-0.384-2.41-1.15-3.258
				c-0.766-0.848-1.858-1.271-3.274-1.271c-1.44,0-2.542,0.424-3.309,1.271c-0.766,0.848-1.149,1.934-1.149,3.258v13.271h-3.1
				v-13.271c0-1.324-0.383-2.41-1.15-3.258c-0.766-0.848-1.858-1.271-3.274-1.271H137.752z"/>
			<path fill="#6D6E71" d="M171.088,133.541c0.721,0,1.568,0.062,2.543,0.191c0.975,0.127,1.898,0.4,2.77,0.818
				s1.607,1.033,2.213,1.846c0.604,0.812,0.893,1.893,0.869,3.24v12.854h-6.896c-0.721,0-1.568-0.064-2.543-0.191
				c-0.975-0.129-1.898-0.4-2.77-0.818s-1.607-1.029-2.211-1.83c-0.605-0.801-0.895-1.887-0.871-3.256
				c0.023-1.416,0.4-2.566,1.131-3.449c0.732-0.883,1.674-1.568,2.822-2.055c1.15-0.488,2.443-0.795,3.885-0.924
				c1.439-0.127,2.891-0.145,4.354-0.053v-0.139c0.023-1.068-0.18-1.916-0.609-2.543s-0.971-1.098-1.619-1.41
				c-0.65-0.314-1.336-0.512-2.057-0.594c-0.719-0.08-1.357-0.121-1.916-0.121h-2.334v-1.01c0.326-0.162,0.732-0.297,1.221-0.4
				C169.555,133.592,170.229,133.541,171.088,133.541z M176.383,141.586c-1.184-0.068-2.316-0.062-3.396,0.018
				c-1.08,0.082-2.037,0.291-2.873,0.627c-0.836,0.338-1.51,0.832-2.021,1.48c-0.51,0.65-0.777,1.51-0.801,2.578
				s0.18,1.904,0.609,2.508c0.43,0.605,0.971,1.057,1.621,1.359c0.648,0.301,1.334,0.486,2.055,0.557
				c0.719,0.07,1.357,0.105,1.916,0.105h2.891V141.586z"/>
			<path fill="#6D6E71" d="M190.316,133.471h3.24v1.08c-0.326,0.162-0.732,0.277-1.219,0.348c-0.488,0.07-1.162,0.139-2.021,0.209
				c-0.557,0.047-1.145,0.139-1.758,0.279c-0.617,0.139-1.174,0.377-1.674,0.713c-0.498,0.338-0.904,0.791-1.219,1.359
				c-0.312,0.568-0.459,1.307-0.436,2.211v12.82h-3.1v-12.854c0-0.697,0.104-1.406,0.312-2.125c0.211-0.721,0.611-1.383,1.203-1.986
				s1.422-1.098,2.49-1.48S188.598,133.471,190.316,133.471z"/>
			<path fill="#6D6E71" d="M213.307,126.434c0.719,0,1.566,0.064,2.543,0.191c0.975,0.129,1.902,0.4,2.785,0.818
				s1.621,1.029,2.213,1.83s0.877,1.887,0.854,3.256v4.877c0.023,1.371-0.262,2.457-0.854,3.258s-1.33,1.41-2.213,1.828
				s-1.811,0.691-2.785,0.818c-0.977,0.129-1.824,0.191-2.543,0.191h-5.992v8.988h-3.1v-26.057H213.307z M218.602,132.635
				c0.021-1.068-0.182-1.91-0.611-2.525s-0.963-1.074-1.602-1.377c-0.639-0.301-1.324-0.486-2.055-0.557
				c-0.732-0.07-1.377-0.105-1.934-0.105h-5.086v13.76h5.086c0.557,0,1.201-0.035,1.934-0.104c0.73-0.07,1.416-0.256,2.055-0.559
				c0.639-0.301,1.172-0.754,1.602-1.357s0.633-1.439,0.611-2.508V132.635z"/>
			<path fill="#6D6E71" d="M230.932,133.541c0.721,0,1.568,0.062,2.543,0.191c0.975,0.127,1.898,0.4,2.77,0.818
				s1.607,1.033,2.213,1.846c0.604,0.812,0.893,1.893,0.869,3.24v12.854h-6.896c-0.721,0-1.568-0.064-2.543-0.191
				c-0.975-0.129-1.898-0.4-2.77-0.818s-1.607-1.029-2.211-1.83c-0.605-0.801-0.895-1.887-0.871-3.256
				c0.023-1.416,0.4-2.566,1.131-3.449c0.732-0.883,1.674-1.568,2.822-2.055c1.15-0.488,2.443-0.795,3.885-0.924
				c1.439-0.127,2.891-0.145,4.354-0.053v-0.139c0.023-1.068-0.18-1.916-0.609-2.543s-0.971-1.098-1.619-1.41
				c-0.65-0.314-1.336-0.512-2.057-0.594c-0.719-0.08-1.357-0.121-1.916-0.121h-2.334v-1.01c0.326-0.162,0.732-0.297,1.221-0.4
				C229.398,133.592,230.072,133.541,230.932,133.541z M236.227,141.586c-1.184-0.068-2.316-0.062-3.396,0.018
				c-1.08,0.082-2.037,0.291-2.873,0.627c-0.836,0.338-1.51,0.832-2.021,1.48c-0.51,0.65-0.777,1.51-0.801,2.578
				s0.18,1.904,0.609,2.508c0.43,0.605,0.971,1.057,1.621,1.359c0.648,0.301,1.334,0.486,2.055,0.557
				c0.719,0.07,1.357,0.105,1.916,0.105h2.891V141.586z"/>
			<path fill="#6D6E71" d="M249.377,135.213c-0.732,0.068-1.424,0.256-2.072,0.557c-0.65,0.303-1.191,0.762-1.621,1.375
				c-0.43,0.617-0.621,1.459-0.574,2.525v6.619c-0.047,1.068,0.145,1.904,0.574,2.508c0.43,0.605,0.971,1.057,1.621,1.359
				c0.648,0.301,1.34,0.486,2.072,0.557c0.73,0.07,1.375,0.105,1.934,0.105h4.109v1.148c-0.324,0.164-0.73,0.291-1.219,0.383
				c-0.488,0.094-1.162,0.141-2.02,0.141h-1.812c-0.465,0-0.998-0.023-1.602-0.07c-0.605-0.047-1.219-0.145-1.846-0.297
				c-0.627-0.15-1.244-0.365-1.848-0.643c-0.604-0.279-1.131-0.645-1.584-1.098s-0.818-1.004-1.098-1.654s-0.406-1.43-0.383-2.334
				v-6.863c-0.023-0.906,0.104-1.684,0.383-2.334s0.645-1.201,1.098-1.654s0.98-0.812,1.584-1.08
				c0.604-0.266,1.221-0.475,1.848-0.627c0.627-0.15,1.24-0.25,1.846-0.295c0.604-0.047,1.137-0.07,1.602-0.07l1.812-0.035
				c0.857,0,1.531,0.053,2.02,0.156c0.488,0.105,0.895,0.238,1.219,0.4v1.115h-4.109
				C250.752,135.107,250.107,135.143,249.377,135.213z"/>
			<path fill="#6D6E71" d="M261.689,129.082c0,0.486-0.168,0.9-0.506,1.236c-0.336,0.336-0.748,0.504-1.236,0.504
				c-0.486,0-0.9-0.168-1.236-0.504s-0.504-0.75-0.504-1.236c0-0.465,0.168-0.871,0.504-1.221c0.336-0.348,0.75-0.521,1.236-0.521
				c0.488,0,0.9,0.174,1.236,0.521C261.521,128.211,261.689,128.617,261.689,129.082z M261.48,133.471h-3.1v19.02h3.1V133.471z"/>
			<path fill="#6D6E71" d="M273.637,128.105c-0.557,0-1.109,0.035-1.654,0.105c-0.545,0.068-1.027,0.256-1.445,0.557
				c-0.418,0.303-0.748,0.756-0.992,1.359s-0.344,1.439-0.297,2.508v1.637h5.678v1.115c-0.324,0.162-0.73,0.295-1.219,0.4
				c-0.488,0.104-1.162,0.156-2.02,0.156h-2.439v16.547h-3.1v-16.582h-1.672v-1.637h1.672v-1.742
				c-0.047-1.346,0.191-2.426,0.713-3.238c0.523-0.812,1.174-1.43,1.951-1.848s1.615-0.689,2.508-0.818
				c0.895-0.127,1.689-0.191,2.387-0.191h3.17v1.115c-0.326,0.162-0.73,0.295-1.219,0.4
				C275.17,128.053,274.496,128.105,273.637,128.105z"/>
			<path fill="#6D6E71" d="M280.709,129.082c0,0.486-0.168,0.9-0.506,1.236c-0.336,0.336-0.748,0.504-1.236,0.504
				c-0.486,0-0.9-0.168-1.236-0.504s-0.504-0.75-0.504-1.236c0-0.465,0.168-0.871,0.504-1.221c0.336-0.348,0.75-0.521,1.236-0.521
				c0.488,0,0.9,0.174,1.236,0.521C280.541,128.211,280.709,128.617,280.709,129.082z M280.5,133.471h-3.1v19.02h3.1V133.471z"/>
			<path fill="#6D6E71" d="M291.072,135.213c-0.732,0.068-1.424,0.256-2.072,0.557c-0.65,0.303-1.191,0.762-1.621,1.375
				c-0.43,0.617-0.621,1.459-0.574,2.525v6.619c-0.047,1.068,0.145,1.904,0.574,2.508c0.43,0.605,0.971,1.057,1.621,1.359
				c0.648,0.301,1.34,0.486,2.072,0.557c0.73,0.07,1.375,0.105,1.934,0.105h4.109v1.148c-0.324,0.164-0.73,0.291-1.219,0.383
				c-0.488,0.094-1.162,0.141-2.02,0.141h-1.812c-0.465,0-0.998-0.023-1.602-0.07c-0.605-0.047-1.219-0.145-1.846-0.297
				c-0.627-0.15-1.244-0.365-1.848-0.643c-0.604-0.279-1.131-0.645-1.584-1.098s-0.818-1.004-1.098-1.654s-0.406-1.43-0.383-2.334
				v-6.863c-0.023-0.906,0.104-1.684,0.383-2.334s0.645-1.201,1.098-1.654s0.98-0.812,1.584-1.08
				c0.604-0.266,1.221-0.475,1.848-0.627c0.627-0.15,1.24-0.25,1.846-0.295c0.604-0.047,1.137-0.07,1.602-0.07l1.812-0.035
				c0.857,0,1.531,0.053,2.02,0.156c0.488,0.105,0.895,0.238,1.219,0.4v1.115h-4.109
				C292.447,135.107,291.803,135.143,291.072,135.213z"/>
			<path fill="#6D6E71" d="M306.904,133.053c0.975,0,1.916,0.133,2.82,0.4c0.906,0.268,1.707,0.662,2.404,1.184
				c0.697,0.523,1.254,1.162,1.672,1.916c0.418,0.756,0.627,1.609,0.627,2.561v7.768c0,0.953-0.209,1.801-0.627,2.543
				c-0.418,0.744-0.975,1.377-1.672,1.898c-0.697,0.523-1.498,0.924-2.404,1.203c-0.904,0.277-1.846,0.418-2.82,0.418
				c-0.977,0-1.916-0.141-2.822-0.418c-0.906-0.279-1.707-0.68-2.402-1.203c-0.697-0.521-1.254-1.154-1.672-1.898
				c-0.42-0.742-0.629-1.59-0.629-2.543v-7.768c0-0.951,0.209-1.805,0.629-2.561c0.418-0.754,0.975-1.393,1.672-1.916
				c0.695-0.521,1.496-0.916,2.402-1.184S305.928,133.053,306.904,133.053z M311.363,139.219c0-1.324-0.383-2.41-1.15-3.258
				c-0.766-0.848-1.869-1.271-3.309-1.271c-1.441,0-2.543,0.424-3.309,1.271c-0.768,0.848-1.15,1.934-1.15,3.258v7.523
				c0,1.324,0.383,2.41,1.15,3.258c0.766,0.848,1.867,1.271,3.309,1.271c1.439,0,2.543-0.424,3.309-1.271
				c0.768-0.848,1.15-1.934,1.15-3.258V139.219z"/>
		</g>
	</g>
</g>
</svg>
