<?xml version="1.0" encoding="utf-8"?>
<!-- Generator: Adobe Illustrator 16.0.0, SVG Export Plug-In . SVG Version: 6.00 Build 0)  -->
<!DOCTYPE svg PUBLIC "-//W3C//DTD SVG 1.1//EN" "http://www.w3.org/Graphics/SVG/1.1/DTD/svg11.dtd">
<svg version="1.1" id="Layer_1" xmlns="http://www.w3.org/2000/svg" xmlns:xlink="http://www.w3.org/1999/xlink" x="0px" y="0px"
	 width="361px" height="243px" viewBox="0 0 361 243" enable-background="new 0 0 361 243" xml:space="preserve">
<g>
	<g>
		<path fill="#6D6E71" d="M83.09,188.18c0.08,2.295,1.046,3.361,3.019,3.361c1.812,0,2.919-1.047,2.919-2.616
			c0-1.329-0.725-2.174-2.214-2.737l-1.731-0.664c-2.254-0.846-3.341-2.053-3.341-3.885c0-2.254,1.69-3.885,4.327-3.885
			s4.267,1.65,4.267,4.429h-1.63c-0.04-1.973-0.986-3.02-2.677-3.02c-1.59,0-2.697,0.986-2.697,2.314
			c0,1.248,0.704,1.973,2.134,2.516l1.831,0.705c2.274,0.865,3.321,1.952,3.321,4.105c0,2.516-1.731,4.146-4.589,4.146
			c-2.838,0-4.448-1.691-4.549-4.771H83.09z"/>
		<path fill="#6D6E71" d="M93.778,192.668v-11.371h1.389v1.469c0.302-1.087,1.207-1.65,2.576-1.65c1.429,0,2.415,0.584,3.039,1.832
			c0.563-1.269,1.429-1.832,2.777-1.832c2.193,0,3.421,1.369,3.421,3.985v7.567h-1.489v-7.004c0-2.174-0.302-3.2-1.952-3.2
			c-1.529,0-2.375,1.107-2.375,3.221v6.983h-1.489v-7.004c0-2.174-0.342-3.2-1.992-3.2c-1.55,0-2.415,1.107-2.415,3.221v6.983
			H93.778z"/>
		<path fill="#6D6E71" d="M118.313,192.668h-1.369v-1.73c-0.442,1.308-1.368,1.972-2.757,1.972c-2.396,0-3.904-2.053-3.904-5.716
			c0-3.965,1.529-6.098,4.085-6.098c1.147,0,2.013,0.463,2.557,1.429v-1.228h1.389V192.668z M114.449,182.464
			c-1.57,0-2.576,1.59-2.576,4.549c0,3.059,0.845,4.589,2.455,4.589c1.631,0,2.496-1.53,2.496-4.569
			C116.824,183.934,116.18,182.464,114.449,182.464z"/>
		<path fill="#6D6E71" d="M125.942,181.115c0.201,0,0.463,0.021,0.745,0.061v1.429c-0.101,0-0.182,0-0.282,0
			c-1.751,0-2.596,0.946-2.596,2.938v7.125h-1.489v-11.371h1.328v1.771C123.93,181.8,124.755,181.115,125.942,181.115z"/>
		<path fill="#6D6E71" d="M129.888,192.668v-10.164h-1.489v-1.207h1.489v-3.261h1.489v3.261h1.591v1.207h-1.591v10.164H129.888z"/>
		<path fill="#6D6E71" d="M152.25,187.576c-0.041,3.481-1.731,5.374-4.73,5.374c-3.542,0-5.253-2.496-5.253-7.588
			c0-4.991,1.832-7.608,5.133-7.608c2.998,0,4.669,1.832,4.851,5.395h-1.49c-0.241-2.717-1.188-4.006-3.14-4.006
			c-2.516,0-3.723,2.073-3.723,6.22c0,4.187,1.167,6.198,3.723,6.198c1.973,0,2.979-1.328,3.039-3.984H152.25z"/>
		<path fill="#6D6E71" d="M155.531,179.908v-1.872h1.489v1.872H155.531z M155.531,192.668v-11.371h1.489v11.371H155.531z"/>
		<path fill="#6D6E71" d="M161.349,192.668v-10.164h-1.489v-1.207h1.489v-3.261h1.489v3.261h1.59v1.207h-1.59v10.164H161.349z"/>
		<path fill="#6D6E71" d="M167.568,181.297l2.435,7.909c0.161,0.503,0.262,1.066,0.302,1.69c0.121-0.684,0.282-1.247,0.423-1.71
			l2.375-7.89h1.55l-4.75,15.275h-1.59l1.269-4.045l-3.583-11.23H167.568z"/>
		<path fill="#6D6E71" d="M193.895,187.576c-0.04,3.481-1.73,5.374-4.729,5.374c-3.542,0-5.253-2.496-5.253-7.588
			c0-4.991,1.831-7.608,5.132-7.608c2.999,0,4.67,1.832,4.851,5.395h-1.489c-0.241-2.717-1.188-4.006-3.14-4.006
			c-2.516,0-3.724,2.073-3.724,6.22c0,4.187,1.168,6.198,3.724,6.198c1.973,0,2.979-1.328,3.039-3.984H193.895z"/>
		<path fill="#6D6E71" d="M196.472,187.013c0-3.784,1.65-5.897,4.388-5.897s4.367,2.113,4.367,5.897
			c0,3.783-1.609,5.896-4.367,5.896C198.103,192.909,196.472,190.796,196.472,187.013z M200.859,182.424
			c-1.791,0-2.798,1.569-2.798,4.589c0,3.019,1.007,4.589,2.798,4.589c1.812,0,2.798-1.55,2.798-4.589
			S202.671,182.424,200.859,182.424z"/>
		<path fill="#6D6E71" d="M209.273,189.267c0.262,1.57,1.047,2.335,2.416,2.335c1.348,0,2.254-0.825,2.254-1.912
			c0-1.026-0.584-1.51-1.832-1.912l-1.63-0.523c-1.65-0.523-2.415-1.449-2.415-2.938c0-1.912,1.389-3.18,3.683-3.18
			c2.174,0,3.422,1.188,3.623,3.502h-1.429c-0.121-1.429-0.946-2.214-2.274-2.214c-1.208,0-2.033,0.785-2.033,1.771
			c0,0.846,0.463,1.269,1.47,1.591l1.569,0.503c2.013,0.644,2.838,1.55,2.838,3.32c0,1.973-1.469,3.281-3.884,3.281
			c-2.234,0-3.623-1.329-3.824-3.623H209.273z"/>
		<path fill="#6D6E71" d="M219.178,192.668v-10.164h-1.49v-1.207h1.49v-3.261h1.489v3.261h1.59v1.207h-1.59v10.164H219.178z"/>
		<path fill="#6D6E71" d="M232.542,192.668h-1.369v-1.73c-0.442,1.308-1.368,1.972-2.757,1.972c-2.396,0-3.904-2.053-3.904-5.716
			c0-3.965,1.529-6.098,4.085-6.098c1.147,0,2.013,0.463,2.557,1.429v-1.228h1.389V192.668z M228.678,182.464
			c-1.57,0-2.576,1.59-2.576,4.549c0,3.059,0.845,4.589,2.455,4.589c1.63,0,2.496-1.53,2.496-4.569
			C231.053,183.934,230.408,182.464,228.678,182.464z"/>
		<path fill="#6D6E71" d="M243.834,192.668v-14.632h3.925c3.24,0,4.931,1.489,4.931,4.206c0,2.536-1.408,4.227-3.622,4.348
			l4.005,6.078h-1.731l-4.77-7.266h1.489c2.013,0,3.039-1.006,3.039-2.918c0-2.013-1.066-3.039-2.999-3.039h-2.777v13.223H243.834z"
			/>
		<path fill="#6D6E71" d="M256.153,179.908v-1.872h1.489v1.872H256.153z M256.153,192.668v-11.371h1.489v11.371H256.153z"/>
		<path fill="#6D6E71" d="M267.242,185.262c-0.141-1.893-0.886-2.838-2.254-2.838c-1.59,0-2.396,1.529-2.396,4.589
			c0,3.039,0.825,4.589,2.396,4.589c1.368,0,2.113-0.967,2.254-2.858h1.409c-0.081,2.697-1.409,4.166-3.663,4.166
			c-2.536,0-3.985-2.032-3.985-5.896s1.449-5.897,3.965-5.897c2.255,0,3.603,1.449,3.684,4.146H267.242z"/>
		<path fill="#6D6E71" d="M279.521,192.668h-1.369v-1.73c-0.442,1.308-1.368,1.972-2.757,1.972c-2.396,0-3.904-2.053-3.904-5.716
			c0-3.965,1.529-6.098,4.085-6.098c1.147,0,2.013,0.463,2.557,1.429v-1.228h1.389V192.668z M275.656,182.464
			c-1.57,0-2.576,1.59-2.576,4.549c0,3.059,0.845,4.589,2.455,4.589c1.63,0,2.496-1.53,2.496-4.569
			C278.031,183.934,277.387,182.464,275.656,182.464z"/>
	</g>
</g>
<g>
	
		<radialGradient id="SVGID_1_" cx="183.3252" cy="116.9893" r="59.2119" gradientTransform="matrix(1.3854 0 0 0.8541 -73.4776 -28.2899)" gradientUnits="userSpaceOnUse">
		<stop  offset="0" style="stop-color:#3EC7F4"/>
		<stop  offset="0.4969" style="stop-color:#00A0CA"/>
		<stop  offset="1" style="stop-color:#003B75"/>
	</radialGradient>
	<ellipse fill="url(#SVGID_1_)" cx="180.501" cy="71.631" rx="82.033" ry="50.572"/>
	<g>
		<defs>
			<ellipse id="SVGID_2_" cx="180.5" cy="71.631" rx="82.433" ry="50.818"/>
		</defs>
		<clipPath id="SVGID_3_">
			<use xlink:href="#SVGID_2_"  overflow="visible"/>
		</clipPath>
		<path clip-path="url(#SVGID_3_)" fill="#FFFFFF" d="M221.044,84.404c0.412-0.237,3.178-1.727,3.66-2.011l0.055,0.021
			l51.574-24.969l-11.842-8.187L230.94,65.668c-2.732-5.55-8.922-11.384-19.801-15.732c-23.553-9.42-56.454-9.865-73.342-0.999
			c-0.521,0.274-1.021,0.554-1.502,0.84l-0.053-0.021l-51.576,24.97l10.752,8.215l33.829-16.119
			c1.719,3.492,5.137,6.967,10.141,10.15l69.706,49.74l11.875-5.944l-45.726-32.171C190.304,93.376,208.905,91.397,221.044,84.404z
			 M152.248,54.865c11.163-5.862,32.909-5.568,48.479,0.659c10.211,4.082,15.268,9.717,14.389,14.765
			c-0.512,2.597-2.594,5.034-6.365,7.016c-11.162,5.86-32.909,5.567-48.478-0.66c-10.211-4.082-15.269-9.719-14.388-14.767
			C146.394,59.281,148.476,56.846,152.248,54.865z"/>
	</g>
</g>
<g>
	<path fill="#6D6E71" d="M35.551,142.424c0.72,0,1.568,0.064,2.544,0.191c0.976,0.128,1.905,0.401,2.788,0.819
		c0.882,0.418,1.62,1.027,2.213,1.829c0.592,0.802,0.876,1.888,0.854,3.259v4.879c0.023,1.371-0.261,2.456-0.854,3.258
		c-0.593,0.802-1.331,1.411-2.213,1.83c-0.883,0.418-1.812,0.691-2.788,0.818c-0.976,0.128-1.824,0.191-2.544,0.191h-5.994v8.991
		h-3.102v-26.066H35.551z M40.848,148.627c0.023-1.068-0.18-1.911-0.61-2.526c-0.43-0.615-0.964-1.074-1.603-1.377
		c-0.639-0.302-1.324-0.487-2.056-0.558c-0.732-0.069-1.377-0.104-1.934-0.104h-5.088v13.766h5.088c0.557,0,1.202-0.035,1.934-0.105
		c0.731-0.069,1.417-0.255,2.056-0.557c0.639-0.302,1.173-0.755,1.603-1.359c0.43-0.604,0.633-1.44,0.61-2.509V148.627z"/>
	<path fill="#6D6E71" d="M59.108,149.463h3.102v13.417c0,0.953-0.215,1.801-0.645,2.544c-0.43,0.743-0.993,1.376-1.69,1.899
		c-0.697,0.522-1.499,0.923-2.404,1.202c-0.906,0.278-1.847,0.418-2.823,0.418c-0.976,0-1.917-0.14-2.823-0.418
		c-0.906-0.279-1.708-0.68-2.405-1.202c-0.697-0.523-1.254-1.156-1.672-1.899c-0.418-0.743-0.627-1.591-0.627-2.544v-13.417h3.102
		v13.277c0,1.324,0.377,2.41,1.132,3.259c0.755,0.848,1.853,1.271,3.293,1.271c1.44,0,2.544-0.424,3.311-1.271
		c0.767-0.849,1.15-1.935,1.15-3.259V149.463z"/>
	<path fill="#6D6E71" d="M75.103,149.654c0.976,0.129,1.905,0.401,2.788,0.819c0.883,0.418,1.621,1.028,2.213,1.83
		c0.592,0.801,0.876,1.876,0.854,3.223v12.964h-3.101v-12.824c0.022-1.068-0.174-1.91-0.593-2.526
		c-0.418-0.615-0.953-1.074-1.603-1.377c-0.65-0.302-1.341-0.487-2.073-0.558c-0.732-0.069-1.376-0.104-1.934-0.104h-2.857v17.39
		h-3.102v-19.027h6.865C73.279,149.463,74.127,149.527,75.103,149.654z"/>
	<path fill="#6D6E71" d="M88.014,164.5c0.313,0.569,0.714,1.022,1.202,1.359s1.034,0.569,1.638,0.697s1.185,0.215,1.743,0.261v1.673
		c-0.488,0-1.022-0.022-1.603-0.069c-0.581-0.047-1.18-0.146-1.795-0.297c-0.616-0.15-1.208-0.365-1.777-0.645
		c-0.569-0.278-1.075-0.645-1.516-1.098c-0.441-0.453-0.79-1.005-1.045-1.655c-0.256-0.65-0.372-1.429-0.349-2.335v-2.893v-3.938
		v-0.035v-9.723h3.067v5.367c0.859-0.395,1.754-0.645,2.683-0.749c0.929-0.105,1.73-0.157,2.405-0.157v1.742
		c-0.535,0.047-1.098,0.128-1.69,0.244s-1.132,0.325-1.621,0.627c-0.488,0.303-0.9,0.715-1.237,1.237
		c-0.337,0.522-0.518,1.202-0.54,2.039v6.133C87.555,163.193,87.7,163.931,88.014,164.5z"/>
	<path fill="#6D6E71" d="M101.866,149.533c0.72,0,1.568,0.063,2.544,0.191c0.976,0.128,1.899,0.4,2.771,0.818
		c0.871,0.419,1.608,1.034,2.213,1.848c0.604,0.813,0.894,1.894,0.871,3.24v12.859h-6.9c-0.72,0-1.568-0.063-2.544-0.191
		c-0.976-0.128-1.899-0.401-2.771-0.819c-0.871-0.418-1.609-1.028-2.212-1.829c-0.604-0.802-0.895-1.888-0.872-3.259
		c0.023-1.417,0.401-2.566,1.133-3.45c0.732-0.882,1.673-1.567,2.823-2.056s2.445-0.796,3.885-0.924
		c1.44-0.127,2.893-0.145,4.356-0.052v-0.14c0.022-1.068-0.181-1.917-0.61-2.544c-0.43-0.627-0.971-1.098-1.621-1.411
		c-0.651-0.313-1.336-0.511-2.056-0.593c-0.72-0.081-1.359-0.122-1.917-0.122h-2.335v-1.01c0.325-0.163,0.732-0.297,1.22-0.401
		S101.007,149.533,101.866,149.533z M107.164,157.583c-1.185-0.07-2.318-0.064-3.398,0.018c-1.08,0.081-2.039,0.29-2.875,0.627
		s-1.51,0.831-2.021,1.48c-0.511,0.651-0.779,1.511-0.802,2.579c-0.023,1.069,0.18,1.905,0.61,2.509
		c0.43,0.604,0.97,1.058,1.621,1.359c0.65,0.303,1.335,0.488,2.056,0.558c0.72,0.069,1.359,0.104,1.917,0.104h2.893V157.583z"/>
	<path fill="#6D6E71" d="M132.846,142.424c0.72,0,1.568,0.064,2.544,0.191c0.976,0.128,1.905,0.401,2.788,0.819
		c0.882,0.418,1.62,1.027,2.213,1.829c0.592,0.802,0.876,1.888,0.854,3.259v4.879c0.023,1.371-0.261,2.456-0.854,3.258
		c-0.593,0.802-1.331,1.411-2.213,1.83c-0.883,0.418-1.812,0.691-2.788,0.818c-0.976,0.128-1.824,0.191-2.544,0.191h-5.994v8.991
		h-3.102v-26.066H132.846z M138.143,148.627c0.023-1.068-0.18-1.911-0.61-2.526c-0.43-0.615-0.964-1.074-1.603-1.377
		c-0.639-0.302-1.324-0.487-2.056-0.558c-0.732-0.069-1.377-0.104-1.934-0.104h-5.088v13.766h5.088c0.557,0,1.202-0.035,1.934-0.105
		c0.731-0.069,1.417-0.255,2.056-0.557c0.639-0.302,1.173-0.755,1.603-1.359c0.43-0.604,0.633-1.44,0.61-2.509V148.627z"/>
	<path fill="#6D6E71" d="M152.082,149.045c0.953,0,1.882,0.146,2.788,0.436c0.906,0.291,1.702,0.715,2.387,1.272
		c0.685,0.557,1.226,1.236,1.621,2.038s0.569,1.702,0.523,2.701c-0.047,0.883-0.285,1.649-0.714,2.3
		c-0.43,0.65-0.976,1.196-1.638,1.638s-1.411,0.79-2.248,1.046s-1.685,0.436-2.544,0.54c-0.86,0.104-1.702,0.134-2.526,0.087
		c-0.825-0.047-1.551-0.151-2.178-0.313v1.742c0.023,1.022,0.255,1.818,0.697,2.387c0.441,0.57,0.976,0.993,1.603,1.272
		c0.627,0.278,1.294,0.453,2.003,0.522c0.708,0.069,1.342,0.104,1.899,0.104h1.394h2.334v1.115c-0.325,0.163-0.731,0.296-1.22,0.4
		c-0.488,0.104-1.162,0.157-2.021,0.157h-1.394c-0.72,0-1.568-0.063-2.544-0.191c-0.976-0.128-1.899-0.401-2.771-0.819
		c-0.871-0.418-1.609-1.028-2.212-1.829c-0.604-0.802-0.895-1.888-0.872-3.259v-5.541c0-1.115,0.174-2.148,0.523-3.102
		c0.349-0.952,0.848-1.777,1.499-2.474c0.65-0.697,1.446-1.243,2.387-1.638C149.799,149.242,150.874,149.045,152.082,149.045z
		 M156.473,155.317c0.046-0.767-0.041-1.434-0.262-2.004c-0.221-0.568-0.54-1.051-0.958-1.446c-0.418-0.395-0.901-0.69-1.446-0.889
		c-0.546-0.196-1.121-0.296-1.725-0.296c-1.394,0-2.498,0.453-3.311,1.359c-0.813,0.906-1.22,2.079-1.22,3.52v3.59
		c1.277,0.116,2.451,0.128,3.52,0.034c1.068-0.093,1.992-0.29,2.771-0.592s1.399-0.721,1.865-1.255
		C156.171,156.805,156.426,156.131,156.473,155.317z"/>
	<path fill="#6D6E71" d="M170.761,149.463h3.241v1.08c-0.326,0.163-0.732,0.279-1.22,0.349c-0.488,0.07-1.162,0.14-2.021,0.209
		c-0.558,0.047-1.145,0.14-1.76,0.279c-0.616,0.14-1.174,0.378-1.673,0.714c-0.5,0.338-0.906,0.79-1.22,1.359
		s-0.459,1.307-0.436,2.213v12.824h-3.102v-12.859c0-0.696,0.104-1.405,0.313-2.125s0.61-1.382,1.202-1.986
		c0.593-0.604,1.423-1.098,2.492-1.481C167.647,149.654,169.041,149.463,170.761,149.463z"/>
	<path fill="#6D6E71" d="M179.75,142.424v19.863c-0.023,0.953,0.133,1.731,0.47,2.335c0.337,0.604,0.767,1.08,1.29,1.429
		s1.098,0.599,1.726,0.749c0.627,0.151,1.23,0.239,1.812,0.262v1.429c-0.487,0-1.034-0.022-1.638-0.069
		c-0.604-0.047-1.22-0.146-1.848-0.297c-0.626-0.15-1.243-0.365-1.846-0.645c-0.604-0.278-1.133-0.645-1.586-1.098
		c-0.453-0.453-0.819-1.005-1.098-1.655s-0.407-1.429-0.383-2.335v-19.968H179.75z"/>
	<path fill="#6D6E71" d="M195.119,149.533c0.719,0,1.568,0.063,2.543,0.191c0.977,0.128,1.9,0.4,2.771,0.818
		c0.871,0.419,1.607,1.034,2.213,1.848c0.604,0.813,0.895,1.894,0.871,3.24v12.859h-6.9c-0.721,0-1.568-0.063-2.543-0.191
		c-0.977-0.128-1.9-0.401-2.771-0.819s-1.609-1.028-2.213-1.829c-0.604-0.802-0.895-1.888-0.871-3.259
		c0.023-1.417,0.4-2.566,1.133-3.45c0.732-0.882,1.672-1.567,2.822-2.056s2.445-0.796,3.887-0.924
		c1.439-0.127,2.893-0.145,4.355-0.052v-0.14c0.023-1.068-0.18-1.917-0.609-2.544c-0.432-0.627-0.971-1.098-1.621-1.411
		s-1.336-0.511-2.057-0.593c-0.721-0.081-1.359-0.122-1.916-0.122h-2.334v-1.01c0.324-0.163,0.73-0.297,1.219-0.401
		S194.26,149.533,195.119,149.533z M200.416,157.583c-1.186-0.07-2.318-0.064-3.398,0.018c-1.08,0.081-2.039,0.29-2.875,0.627
		s-1.51,0.831-2.021,1.48c-0.51,0.651-0.777,1.511-0.801,2.579c-0.023,1.069,0.18,1.905,0.609,2.509
		c0.43,0.604,0.971,1.058,1.621,1.359c0.65,0.303,1.336,0.488,2.057,0.558c0.719,0.069,1.357,0.104,1.916,0.104h2.893V157.583z"/>
	<path fill="#6D6E71" d="M226.098,142.424c0.721,0,1.568,0.064,2.545,0.191c0.975,0.128,1.904,0.401,2.787,0.819
		s1.621,1.027,2.213,1.829s0.877,1.888,0.854,3.259v4.879c0.023,1.371-0.262,2.456-0.854,3.258s-1.33,1.411-2.213,1.83
		c-0.883,0.418-1.812,0.691-2.787,0.818c-0.977,0.128-1.824,0.191-2.545,0.191h-5.994v8.991h-3.102v-26.066H226.098z
		 M231.395,148.627c0.023-1.068-0.18-1.911-0.609-2.526s-0.965-1.074-1.604-1.377c-0.639-0.302-1.324-0.487-2.055-0.558
		c-0.732-0.069-1.377-0.104-1.936-0.104h-5.088v13.766h5.088c0.559,0,1.203-0.035,1.936-0.105c0.73-0.069,1.416-0.255,2.055-0.557
		s1.174-0.755,1.604-1.359s0.633-1.44,0.609-2.509V148.627z"/>
	<path fill="#6D6E71" d="M244.602,149.533c0.721,0,1.568,0.063,2.545,0.191c0.975,0.128,1.898,0.4,2.77,0.818
		c0.871,0.419,1.609,1.034,2.213,1.848s0.895,1.894,0.871,3.24v12.859h-6.898c-0.721,0-1.568-0.063-2.545-0.191
		s-1.898-0.401-2.77-0.819s-1.609-1.028-2.213-1.829c-0.605-0.802-0.895-1.888-0.871-3.259c0.021-1.417,0.4-2.566,1.131-3.45
		c0.732-0.882,1.674-1.567,2.824-2.056c1.148-0.488,2.443-0.796,3.885-0.924c1.439-0.127,2.893-0.145,4.355-0.052v-0.14
		c0.023-1.068-0.18-1.917-0.609-2.544s-0.971-1.098-1.621-1.411s-1.336-0.511-2.055-0.593c-0.721-0.081-1.359-0.122-1.918-0.122
		h-2.334v-1.01c0.324-0.163,0.732-0.297,1.219-0.401C243.068,149.585,243.742,149.533,244.602,149.533z M249.898,157.583
		c-1.184-0.07-2.316-0.064-3.396,0.018c-1.08,0.081-2.039,0.29-2.875,0.627s-1.512,0.831-2.021,1.48
		c-0.512,0.651-0.779,1.511-0.801,2.579c-0.023,1.069,0.18,1.905,0.609,2.509c0.43,0.604,0.969,1.058,1.619,1.359
		c0.65,0.303,1.336,0.488,2.057,0.558s1.359,0.104,1.916,0.104h2.893V157.583z"/>
	<path fill="#6D6E71" d="M263.926,151.205c-0.732,0.07-1.424,0.256-2.074,0.558c-0.65,0.303-1.191,0.762-1.621,1.377
		c-0.43,0.616-0.621,1.458-0.574,2.526v6.621c-0.047,1.069,0.145,1.905,0.574,2.509c0.43,0.604,0.971,1.058,1.621,1.359
		c0.65,0.303,1.342,0.488,2.074,0.558c0.73,0.069,1.375,0.104,1.934,0.104h4.111v1.15c-0.324,0.162-0.73,0.29-1.219,0.383
		c-0.488,0.094-1.162,0.14-2.021,0.14h-1.812c-0.465,0-0.998-0.022-1.604-0.069c-0.604-0.047-1.219-0.146-1.846-0.297
		c-0.627-0.15-1.244-0.365-1.848-0.645c-0.604-0.278-1.133-0.645-1.586-1.098s-0.818-1.005-1.098-1.655
		c-0.277-0.65-0.406-1.429-0.383-2.335v-6.865c-0.023-0.905,0.105-1.684,0.383-2.335c0.279-0.649,0.645-1.202,1.098-1.655
		c0.453-0.452,0.982-0.812,1.586-1.08c0.604-0.267,1.221-0.476,1.848-0.627s1.242-0.249,1.846-0.296
		c0.605-0.047,1.139-0.07,1.604-0.07l1.812-0.034c0.859,0,1.533,0.052,2.021,0.156s0.895,0.238,1.219,0.4v1.115h-4.111
		C265.301,151.101,264.656,151.136,263.926,151.205z"/>
	<path fill="#6D6E71" d="M280.67,144.339l-4.252,4.983h-2.195l3.068-4.983H280.67z M274.432,168.49v-16.868h3.068v16.868H274.432z"
		/>
	<path fill="#6D6E71" d="M291.125,144.097c-0.559,0-1.111,0.034-1.656,0.104c-0.547,0.069-1.027,0.256-1.445,0.558
		c-0.42,0.302-0.75,0.755-0.994,1.358c-0.244,0.604-0.344,1.441-0.297,2.51v1.638h5.682v1.115c-0.326,0.163-0.732,0.296-1.221,0.4
		s-1.162,0.157-2.021,0.157h-2.439v16.553h-3.102v-16.588h-1.672v-1.638h1.672v-1.742c-0.047-1.348,0.193-2.428,0.715-3.241
		c0.523-0.812,1.174-1.429,1.951-1.847c0.779-0.418,1.615-0.691,2.51-0.819c0.895-0.127,1.689-0.191,2.387-0.191h3.172v1.115
		c-0.326,0.163-0.732,0.296-1.221,0.4C292.658,144.044,291.982,144.097,291.125,144.097z"/>
	<path fill="#6D6E71" d="M299.07,145.072c0,0.488-0.17,0.9-0.506,1.237c-0.338,0.337-0.75,0.505-1.238,0.505
		c-0.486,0-0.9-0.168-1.236-0.505s-0.506-0.749-0.506-1.237c0-0.465,0.17-0.871,0.506-1.22s0.75-0.522,1.236-0.522
		c0.488,0,0.9,0.174,1.238,0.522C298.9,144.201,299.07,144.607,299.07,145.072z M298.861,149.463h-3.102v19.027h3.102V149.463z"/>
	<path fill="#6D6E71" d="M310.309,151.205c-0.732,0.07-1.424,0.256-2.074,0.558c-0.65,0.303-1.191,0.762-1.621,1.377
		c-0.43,0.616-0.621,1.458-0.574,2.526v6.621c-0.047,1.069,0.145,1.905,0.574,2.509c0.43,0.604,0.971,1.058,1.621,1.359
		c0.65,0.303,1.342,0.488,2.074,0.558c0.73,0.069,1.375,0.104,1.934,0.104h4.111v1.15c-0.324,0.162-0.73,0.29-1.219,0.383
		c-0.488,0.094-1.162,0.14-2.021,0.14h-1.812c-0.465,0-0.998-0.022-1.604-0.069c-0.604-0.047-1.219-0.146-1.846-0.297
		c-0.627-0.15-1.244-0.365-1.848-0.645c-0.604-0.278-1.133-0.645-1.586-1.098s-0.818-1.005-1.098-1.655
		c-0.277-0.65-0.406-1.429-0.383-2.335v-6.865c-0.023-0.905,0.105-1.684,0.383-2.335c0.279-0.649,0.645-1.202,1.098-1.655
		c0.453-0.452,0.982-0.812,1.586-1.08c0.604-0.267,1.221-0.476,1.848-0.627s1.242-0.249,1.846-0.296
		c0.605-0.047,1.139-0.07,1.604-0.07l1.812-0.034c0.859,0,1.533,0.052,2.021,0.156s0.895,0.238,1.219,0.4v1.115h-4.111
		C311.684,151.101,311.039,151.136,310.309,151.205z"/>
	<path fill="#6D6E71" d="M327.018,149.045c0.975,0,1.916,0.134,2.822,0.4c0.906,0.268,1.707,0.662,2.404,1.186
		c0.697,0.522,1.254,1.161,1.672,1.916c0.42,0.756,0.629,1.609,0.629,2.562v7.771c0,0.953-0.209,1.801-0.629,2.544
		c-0.418,0.743-0.975,1.376-1.672,1.899c-0.697,0.522-1.498,0.923-2.404,1.202c-0.906,0.278-1.848,0.418-2.822,0.418
		c-0.977,0-1.918-0.14-2.824-0.418c-0.904-0.279-1.707-0.68-2.404-1.202c-0.697-0.523-1.254-1.156-1.672-1.899
		s-0.627-1.591-0.627-2.544v-7.771c0-0.952,0.209-1.806,0.627-2.562c0.418-0.755,0.975-1.394,1.672-1.916
		c0.697-0.523,1.5-0.918,2.404-1.186C325.1,149.179,326.041,149.045,327.018,149.045z M331.477,155.213
		c0-1.324-0.383-2.41-1.148-3.258c-0.768-0.848-1.871-1.272-3.311-1.272c-1.441,0-2.545,0.425-3.311,1.272
		c-0.768,0.848-1.15,1.934-1.15,3.258v7.527c0,1.324,0.383,2.41,1.15,3.259c0.766,0.848,1.869,1.271,3.311,1.271
		c1.439,0,2.543-0.424,3.311-1.271c0.766-0.849,1.148-1.935,1.148-3.259V155.213z"/>
</g>
<text transform="matrix(1 0 0 1 79.0293 224)" fill="#6D6E71" font-family="'TeXGyreAdventor-Regular'" font-size="12"> Conceived by Pacific Tree Co. S.A</text>
</svg>
